<?xml version="1.0" encoding="UTF-8" standalone="no"?>
<svg
   xmlns:dc="http://purl.org/dc/elements/1.1/"
   xmlns:cc="http://creativecommons.org/ns#"
   xmlns:rdf="http://www.w3.org/1999/02/22-rdf-syntax-ns#"
   xmlns:svg="http://www.w3.org/2000/svg"
   xmlns="http://www.w3.org/2000/svg"
   version="1.1"
   id="svg2"
   viewBox="0 0 744.09448819 1052.3622047"
   height="297mm"
   width="210mm">
  <defs
     id="defs4" />
  <metadata
     id="metadata7">
    <rdf:RDF>
      <cc:Work
         rdf:about="">
        <dc:format>image/svg+xml</dc:format>
        <dc:type
           rdf:resource="http://purl.org/dc/dcmitype/StillImage" />
        <dc:title></dc:title>
      </cc:Work>
    </rdf:RDF>
  </metadata>
  <g
     style="display:inline"
     id="layer1">
    <g
       id="flowRoot3336"
       style="font-style:normal;font-weight:normal;font-size:33.75px;line-height:125%;font-family:sans-serif;letter-spacing:0px;word-spacing:0px;fill:#000000;fill-opacity:1;stroke:none;stroke-width:1px;stroke-linecap:butt;stroke-linejoin:miter;stroke-opacity:1"
       transform="matrix(0,-1,1,0,103.6451,764.24386)">
      <path
         id="path3367"
         style="font-style:normal;font-variant:normal;font-weight:normal;font-stretch:normal;font-size:33.75px;font-family:'DejaVu Sans Mono';-inkscape-font-specification:'DejaVu Sans Mono'"
         d="m -250.44543,218.54226 14.48547,0 0,2.80152 -11.14014,0 0,7.25097 10.10193,0 0,2.80152 -10.10193,0 0,11.74987 -3.34533,0 0,-24.60388 z" />
      <path
         id="path3369"
         style="font-style:normal;font-variant:normal;font-weight:normal;font-stretch:normal;font-size:33.75px;font-family:'DejaVu Sans Mono';-inkscape-font-specification:'DejaVu Sans Mono'"
         d="m -230.43933,218.54226 3.34534,0 0,21.80237 11.88171,0 0,2.80151 -15.22705,0 0,-24.60388 z" />
      <path
         id="path3371"
         style="font-style:normal;font-variant:normal;font-weight:normal;font-stretch:normal;font-size:33.75px;font-family:'DejaVu Sans Mono';-inkscape-font-specification:'DejaVu Sans Mono'"
         d="m -195.48633,241.11917 q -1.33484,1.23596 -3.01575,1.87866 -1.66442,0.62622 -3.609,0.62622 -4.68018,0 -7.28394,-3.34534 -2.60376,-3.36181 -2.60376,-9.40979 0,-6.03149 2.63672,-9.39331 2.63672,-3.37829 7.33337,-3.37829 1.54908,0 2.96631,0.44494 1.41724,0.42847 2.7356,1.31836 l 0,3.41126 q -1.33484,-1.26892 -2.7356,-1.86219 -1.40075,-0.60974 -2.96631,-0.60974 -3.24646,0 -4.87793,2.52136 -1.61499,2.50489 -1.61499,7.54761 0,5.12512 1.56556,7.59705 1.58203,2.45544 4.84497,2.45544 1.10412,0 1.9281,-0.24719 0.84045,-0.26367 1.51611,-0.8075 l 0,-6.60827 -3.57605,0 0,-2.7356 6.75659,0 0,10.59632 z" />
      <path
         id="path3373"
         style="font-style:normal;font-variant:normal;font-weight:normal;font-stretch:normal;font-size:33.75px;font-family:'DejaVu Sans Mono';-inkscape-font-specification:'DejaVu Sans Mono'"
         d="m -176.69971,246.27725 0,2.37304 -1.05468,0 q -4.1034,0 -5.50415,-1.21948 -1.38428,-1.21948 -1.38428,-4.86145 l 0,-3.9386 q 0,-2.4884 -0.88989,-3.44421 -0.87342,-0.95581 -3.18055,-0.95581 l -1.02173,0 0,-2.35657 1.02173,0 q 2.32361,0 3.19702,-0.93933 0.87342,-0.93933 0.87342,-3.41126 l 0,-3.95507 q 0,-3.64197 1.38428,-4.84497 1.40075,-1.21949 5.50415,-1.21949 l 1.05468,0 0,2.35657 -1.15356,0 q -2.30713,0 -3.01575,0.7251 -0.69214,0.70862 -0.69214,3.0487 l 0,4.08692 q 0,2.58728 -0.75805,3.75732 -0.74158,1.17005 -2.55433,1.58203 1.82923,0.44495 2.57081,1.61499 0.74157,1.17005 0.74157,3.74085 l 0,4.08691 q 0,2.35657 0.69214,3.06519 0.70862,0.70862 3.01575,0.70862 l 1.15356,0 z" />
      <path
         id="path3375"
         style="font-style:normal;font-variant:normal;font-weight:normal;font-stretch:normal;font-size:33.75px;font-family:'DejaVu Sans Mono';-inkscape-font-specification:'DejaVu Sans Mono'"
         d="m -162.92285,231.46218 q -2.22473,0 -3.44422,1.25245 -1.203,1.23596 -1.203,3.51013 0,2.27417 1.21948,3.54309 1.23597,1.25244 3.42774,1.25244 2.24121,0 3.44421,-1.23596 1.21948,-1.25244 1.21948,-3.55957 0,-2.25769 -1.23596,-3.51013 -1.21948,-1.25245 -3.42773,-1.25245 z m -2.90039,-1.38427 q -2.12586,-0.54383 -3.32886,-2.02698 -1.18652,-1.48316 -1.18652,-3.57605 0,-2.93335 1.99402,-4.64722 1.99401,-1.73034 5.42175,-1.73034 3.44421,0 5.43823,1.73034 1.99402,1.71387 1.99402,4.64722 0,2.09289 -1.203,3.57605 -1.18653,1.48315 -3.31238,2.02698 2.47192,0.54382 3.7738,2.19177 1.31836,1.64795 1.31836,4.26819 0,3.32885 -2.12585,5.20752 -2.12586,1.87866 -5.88318,1.87866 -3.75733,0 -5.88318,-1.86218 -2.10938,-1.87867 -2.10938,-5.19104 0,-2.63672 1.30188,-4.28467 1.31836,-1.66443 3.79029,-2.20825 z m -1.20301,-5.28992 q 0,1.97754 1.05469,3.01575 1.05469,1.0382 3.04871,1.0382 2.0105,0 3.06518,-1.0382 1.05469,-1.03821 1.05469,-3.01575 0,-2.0105 -1.05469,-3.06519 -1.0382,-1.05468 -3.06518,-1.05468 -1.99402,0 -3.04871,1.07116 -1.05469,1.05469 -1.05469,3.04871 z" />
      <path
         id="path3377"
         style="font-style:normal;font-variant:normal;font-weight:normal;font-stretch:normal;font-size:33.75px;font-family:'DejaVu Sans Mono';-inkscape-font-specification:'DejaVu Sans Mono'"
         d="m -142.94971,232.23672 q 2.12586,0 3.32886,-1.53259 1.21948,-1.5326 1.21948,-4.23523 0,-2.70264 -1.21948,-4.23523 -1.203,-1.53259 -3.32886,-1.53259 -2.20825,0 -3.32885,1.46667 -1.12061,1.4502 -1.12061,4.30115 0,2.86743 1.10413,4.31762 1.1206,1.4502 3.34533,1.4502 z m -5.93261,10.39856 0,-3.06519 q 1.0382,0.60974 2.20825,0.93933 1.17004,0.31312 2.43896,0.31312 3.16407,0 4.77906,-2.37305 1.63147,-2.38953 1.63147,-7.02027 -0.77454,1.64795 -2.1753,2.53785 -1.40075,0.87341 -3.2135,0.87341 -3.55957,0 -5.52063,-2.19177 -1.94458,-2.19178 -1.94458,-6.21277 0,-3.97156 1.99402,-6.14685 2.0105,-2.19177 5.66895,-2.19177 4.28466,0 6.27868,3.08166 1.99402,3.08167 1.99402,9.68994 0,6.21277 -2.40601,9.49219 -2.38952,3.26294 -6.95434,3.26294 -1.203,0 -2.42249,-0.26367 -1.21948,-0.2472 -2.35656,-0.7251 z" />
      <path
         id="path3379"
         style="font-style:normal;font-variant:normal;font-weight:normal;font-stretch:normal;font-size:33.75px;font-family:'DejaVu Sans Mono';-inkscape-font-specification:'DejaVu Sans Mono'"
         d="m -120.90015,233.86819 -1.00525,0 q -2.65319,0 -4.00451,0.93933 -1.33484,0.92285 -1.33484,2.76856 0,1.66442 1.00525,2.58728 1.00525,0.92285 2.78503,0.92285 2.50489,0 3.9386,-1.73035 1.43372,-1.74683 1.4502,-4.81201 l 0,-0.67566 -2.83448,0 z m 5.88318,-1.25244 0,10.53039 -3.0487,0 0,-2.73559 q -0.97229,1.64795 -2.45545,2.43896 -1.46667,0.77454 -3.57605,0.77454 -2.81799,0 -4.4989,-1.58203 -1.68091,-1.59851 -1.68091,-4.26819 0,-3.08167 2.05994,-4.68018 2.07641,-1.59851 6.08093,-1.59851 l 4.07044,0 0,-0.4779 q -0.0165,-2.20825 -1.12061,-3.19702 -1.10413,-1.00525 -3.52661,-1.00525 -1.54907,0 -3.1311,0.44494 -1.58204,0.44495 -3.08167,1.30188 l 0,-3.03222 q 1.68091,-0.6427 3.2135,-0.95581 1.54907,-0.32959 2.99927,-0.32959 2.29065,0 3.90564,0.67566 1.63147,0.67565 2.63672,2.02697 0.62622,0.82398 0.88989,2.04346 0.26367,1.203 0.26367,3.62549 z" />
      <path
         id="path3381"
         style="font-style:normal;font-variant:normal;font-weight:normal;font-stretch:normal;font-size:33.75px;font-family:'DejaVu Sans Mono';-inkscape-font-specification:'DejaVu Sans Mono'"
         d="m -95.834839,219.08608 0,3.06519 q -1.038208,-0.60974 -2.208252,-0.92285 -1.170044,-0.32959 -2.438969,-0.32959 -3.16406,0 -4.79553,2.38953 -1.63147,2.37304 -1.63147,7.00378 0.79102,-1.64795 2.19177,-2.52136 1.40076,-0.8899 3.21351,-0.8899 3.559566,0 5.504146,2.19178 1.96106,2.17529 1.96106,6.17981 0,3.98803 -2.010498,6.17981 -2.010498,2.19177 -5.652468,2.19177 -4.28467,0 -6.27868,-3.06519 -1.99402,-3.08166 -1.99402,-9.68994 0,-6.22925 2.38952,-9.49219 2.40601,-3.27941 6.95435,-3.27941 1.219481,0 2.438964,0.26367 1.219482,0.24719 2.356567,0.72509 z m -5.932621,10.39856 q -2.12585,0 -3.34533,1.5326 -1.21949,1.53259 -1.21949,4.23523 0,2.70263 1.21949,4.23523 1.21948,1.53259 3.34533,1.53259 2.208256,0 3.328861,-1.4502 1.120606,-1.46667 1.120606,-4.31762 0,-2.86743 -1.120606,-4.31763 -1.120605,-1.4502 -3.328861,-1.4502 z" />
      <path
         id="path3383"
         style="font-style:normal;font-variant:normal;font-weight:normal;font-stretch:normal;font-size:33.75px;font-family:'DejaVu Sans Mono';-inkscape-font-specification:'DejaVu Sans Mono'"
         d="m -79.075195,229.97903 q 2.422485,0.6427 3.707885,2.29065 1.285401,1.63147 1.285401,4.08691 0,3.39478 -2.29065,5.33936 -2.27417,1.9281 -6.311645,1.9281 -1.697388,0 -3.460693,-0.31311 -1.763306,-0.31311 -3.460694,-0.90637 l 0,-3.31238 q 1.680908,0.87341 3.312378,1.30188 1.63147,0.42847 3.24646,0.42847 2.735596,0 4.202271,-1.23597 1.466674,-1.23596 1.466674,-3.55957 0,-2.14233 -1.466674,-3.39477 -1.466675,-1.26892 -3.971558,-1.26892 l -2.537842,0 0,-2.7356 2.537842,0 q 2.290649,0 3.57605,-1.00525 1.2854,-1.00525 1.2854,-2.80151 0,-1.89514 -1.203003,-2.90039 -1.186523,-1.02173 -3.394775,-1.02173 -1.466675,0 -3.032227,0.32959 -1.565551,0.32959 -3.279419,0.98877 l 0,-3.06519 q 1.994019,-0.52734 3.543091,-0.79101 1.565552,-0.26367 2.768555,-0.26367 3.592529,0 5.734863,1.81274 2.158814,1.79626 2.158814,4.77905 0,2.02698 -1.137085,3.3783 -1.120606,1.35132 -3.279419,1.91162 z" />
      <path
         id="path3385"
         style="font-style:normal;font-variant:normal;font-weight:normal;font-stretch:normal;font-size:33.75px;font-family:'DejaVu Sans Mono';-inkscape-font-specification:'DejaVu Sans Mono'"
         d="m -56.432373,233.93411 q 0,-3.52661 -1.120606,-5.32288 -1.120605,-1.79626 -3.312377,-1.79626 -2.208252,0 -3.345337,1.81274 -1.137085,1.79627 -1.137085,5.3064 0,3.49365 1.137085,5.30639 1.137085,1.81275 3.345337,1.81275 2.191772,0 3.312377,-1.79627 1.120606,-1.79626 1.120606,-5.32287 z m -8.915405,-6.88843 q 0.725097,-1.35132 1.994018,-2.07642 1.285401,-0.72509 2.966309,-0.72509 3.328857,0 5.240478,2.5708 1.911621,2.55432 1.911621,7.05322 0,4.56482 -1.9281,7.16858 -1.911621,2.58728 -5.256958,2.58728 -1.647949,0 -2.91687,-0.70862 -1.252442,-0.7251 -2.010498,-2.09289 l 0,2.3236 -3.032227,0 0,-25.64209 3.032227,0 0,9.54163 z" />
      <path
         id="path3387"
         style="font-style:normal;font-variant:normal;font-weight:normal;font-stretch:normal;font-size:33.75px;font-family:'DejaVu Sans Mono';-inkscape-font-specification:'DejaVu Sans Mono'"
         d="m -41.106445,231.46218 q -2.224732,0 -3.444214,1.25245 -1.203003,1.23596 -1.203003,3.51013 0,2.27417 1.219482,3.54309 1.235962,1.25244 3.427735,1.25244 2.241211,0 3.444214,-1.23596 1.219482,-1.25244 1.219482,-3.55957 0,-2.25769 -1.235962,-3.51013 -1.219482,-1.25245 -3.427734,-1.25245 z m -2.900391,-1.38427 q -2.125854,-0.54383 -3.328857,-2.02698 -1.186524,-1.48316 -1.186524,-3.57605 0,-2.93335 1.994019,-4.64722 1.994018,-1.73034 5.421753,-1.73034 3.444214,0 5.438232,1.73034 1.994019,1.71387 1.994019,4.64722 0,2.09289 -1.203003,3.57605 -1.186524,1.48315 -3.312378,2.02698 2.471924,0.54382 3.773804,2.19177 1.318359,1.64795 1.318359,4.26819 0,3.32885 -2.125855,5.20752 -2.125854,1.87866 -5.883178,1.87866 -3.757325,0 -5.883179,-1.86218 -2.109375,-1.87867 -2.109375,-5.19104 0,-2.63672 1.30188,-4.28467 1.318359,-1.66443 3.790283,-2.20825 z m -1.203003,-5.28992 q 0,1.97754 1.054688,3.01575 1.054687,1.0382 3.048706,1.0382 2.010498,0 3.065185,-1.0382 1.054688,-1.03821 1.054688,-3.01575 0,-2.0105 -1.054688,-3.06519 -1.038208,-1.05468 -3.065185,-1.05468 -1.994019,0 -3.048706,1.07116 -1.054688,1.05469 -1.054688,3.04871 z" />
      <path
         id="path3389"
         style="font-style:normal;font-variant:normal;font-weight:normal;font-stretch:normal;font-size:33.75px;font-family:'DejaVu Sans Mono';-inkscape-font-specification:'DejaVu Sans Mono'"
         d="m -18.842651,221.57449 -7.761841,13.00232 7.761841,0 0,-13.00232 z m -0.543824,-3.03223 3.856202,0 0,16.03455 3.279419,0 0,2.70263 -3.279419,0 0,5.8667 -3.312378,0 0,-5.8667 -10.431519,0 0,-3.14758 9.887695,-15.5896 z" />
      <path
         id="path3391"
         style="font-style:normal;font-variant:normal;font-weight:normal;font-stretch:normal;font-size:33.75px;font-family:'DejaVu Sans Mono';-inkscape-font-specification:'DejaVu Sans Mono'"
         d="m 7.6728516,233.15957 0,1.48316 -13.1341553,0 0,0.0989 q 0,3.01575 1.5655517,4.6637 1.5820313,1.64795 4.44946294,1.64795 1.45019536,0 3.03222656,-0.46143 1.5820312,-0.46142 3.3782959,-1.40075 l 0,3.01574 q -1.7303467,0.70862 -3.3453369,1.05469 -1.5985108,0.36255 -3.09814455,0.36255 -4.30114745,0 -6.72363285,-2.5708 -2.4224853,-2.58728 -2.4224853,-7.11914 0,-4.41651 2.3730469,-7.05323 2.3730468,-2.63671 6.32812496,-2.63671 3.52661134,0 5.55358884,2.38952 2.0434571,2.38953 2.0434571,6.52588 z M 4.640625,232.26968 Q 4.574707,229.6 3.3717041,228.21572 q -1.1865234,-1.40075 -3.42773437,-1.40075 -2.19177243,0 -3.60900883,1.45019 -1.4172363,1.4502 -1.6809082,4.021 l 9.9865723,-0.0165 z" />
      <path
         id="path3393"
         style="font-style:normal;font-variant:normal;font-weight:normal;font-stretch:normal;font-size:33.75px;font-family:'DejaVu Sans Mono';-inkscape-font-specification:'DejaVu Sans Mono'"
         d="m 27.168091,217.50405 0,2.52137 -3.444214,0 q -1.63147,0 -2.27417,0.67566 -0.626221,0.65917 -0.626221,2.35656 l 0,1.63147 6.344605,0 0,2.35657 -6.344605,0 0,16.10046 -3.032226,0 0,-16.10046 -4.927368,0 0,-2.35657 4.927368,0 0,-1.2854 q 0,-3.03222 1.384277,-4.46594 1.400757,-1.43372 4.350586,-1.43372 l 3.641968,0 z" />
      <path
         id="path3395"
         style="font-style:normal;font-variant:normal;font-weight:normal;font-stretch:normal;font-size:33.75px;font-family:'DejaVu Sans Mono';-inkscape-font-specification:'DejaVu Sans Mono'"
         d="m 40.104492,231.46218 q -2.224731,0 -3.444214,1.25245 -1.203003,1.23596 -1.203003,3.51013 0,2.27417 1.219483,3.54309 1.235962,1.25244 3.427734,1.25244 2.241211,0 3.444214,-1.23596 1.219482,-1.25244 1.219482,-3.55957 0,-2.25769 -1.235961,-3.51013 -1.219483,-1.25245 -3.427735,-1.25245 z m -2.90039,-1.38427 q -2.125855,-0.54383 -3.328858,-2.02698 -1.186523,-1.48316 -1.186523,-3.57605 0,-2.93335 1.994018,-4.64722 1.994019,-1.73034 5.421753,-1.73034 3.444214,0 5.438233,1.73034 1.994018,1.71387 1.994018,4.64722 0,2.09289 -1.203003,3.57605 -1.186523,1.48315 -3.312378,2.02698 2.471924,0.54382 3.773804,2.19177 1.318359,1.64795 1.318359,4.26819 0,3.32885 -2.125854,5.20752 -2.125855,1.87866 -5.883179,1.87866 -3.757324,0 -5.883179,-1.86218 -2.109375,-1.87867 -2.109375,-5.19104 0,-2.63672 1.30188,-4.28467 1.31836,-1.66443 3.790284,-2.20825 z m -1.203003,-5.28992 q 0,1.97754 1.054687,3.01575 1.054688,1.0382 3.048706,1.0382 2.010498,0 3.065186,-1.0382 1.054687,-1.03821 1.054687,-3.01575 0,-2.0105 -1.054687,-3.06519 -1.038208,-1.05468 -3.065186,-1.05468 -1.994018,0 -3.048706,1.07116 -1.054687,1.05469 -1.054687,3.04871 z" />
      <path
         id="path3397"
         style="font-style:normal;font-variant:normal;font-weight:normal;font-stretch:normal;font-size:33.75px;font-family:'DejaVu Sans Mono';-inkscape-font-specification:'DejaVu Sans Mono'"
         d="m 54.705322,240.34463 5.174561,0 0,-18.8031 -5.570069,1.25244 0,-3.03223 5.53711,-1.21948 3.328857,0 0,21.80237 5.108643,0 0,2.80151 -13.579102,0 0,-2.80151 z" />
      <path
         id="path3399"
         style="font-style:normal;font-variant:normal;font-weight:normal;font-stretch:normal;font-size:33.75px;font-family:'DejaVu Sans Mono';-inkscape-font-specification:'DejaVu Sans Mono'"
         d="m 78.518188,230.78652 q 0,-0.90637 0.626221,-1.56555 0.6427,-0.65918 1.532593,-0.65918 0.922852,0 1.582031,0.65918 0.65918,0.65918 0.65918,1.56555 0,0.92286 -0.65918,1.56556 -0.6427,0.6427 -1.582031,0.6427 -0.922852,0 -1.549072,-0.62622 -0.609742,-0.62623 -0.609742,-1.58204 z m 2.191773,-10.05249 q -2.323608,0 -3.477173,2.50489 -1.137085,2.50488 -1.137085,7.63 0,5.10864 1.137085,7.61353 1.153565,2.50488 3.477173,2.50488 2.340088,0 3.477173,-2.50488 1.153564,-2.50489 1.153564,-7.61353 0,-5.12512 -1.153564,-7.63 -1.137085,-2.50489 -3.477173,-2.50489 z m 0,-2.63671 q 3.938599,0 5.949097,3.22998 2.026977,3.22998 2.026977,9.54162 0,6.29517 -2.026977,9.52515 -2.010498,3.22998 -5.949097,3.22998 -3.938599,0 -5.949097,-3.22998 -2.010498,-3.22998 -2.010498,-9.52515 0,-6.31164 2.010498,-9.54162 2.010498,-3.22998 5.949097,-3.22998 z" />
      <path
         id="path3401"
         style="font-style:normal;font-variant:normal;font-weight:normal;font-stretch:normal;font-size:33.75px;font-family:'DejaVu Sans Mono';-inkscape-font-specification:'DejaVu Sans Mono'"
         d="m 98.820923,230.78652 q 0,-0.90637 0.626221,-1.56555 0.642696,-0.65918 1.532596,-0.65918 0.92285,0 1.58203,0.65918 0.65918,0.65918 0.65918,1.56555 0,0.92286 -0.65918,1.56556 -0.6427,0.6427 -1.58203,0.6427 -0.92286,0 -1.549076,-0.62622 -0.609741,-0.62623 -0.609741,-1.58204 z m 2.191777,-10.05249 q -2.323613,0 -3.477178,2.50489 -1.137085,2.50488 -1.137085,7.63 0,5.10864 1.137085,7.61353 1.153565,2.50488 3.477178,2.50488 2.34008,0 3.47717,-2.50488 1.15356,-2.50489 1.15356,-7.61353 0,-5.12512 -1.15356,-7.63 -1.13709,-2.50489 -3.47717,-2.50489 z m 0,-2.63671 q 3.93859,0 5.94909,3.22998 2.02698,3.22998 2.02698,9.54162 0,6.29517 -2.02698,9.52515 -2.0105,3.22998 -5.94909,3.22998 -3.938603,0 -5.949101,-3.22998 -2.010498,-3.22998 -2.010498,-9.52515 0,-6.31164 2.010498,-9.54162 2.010498,-3.22998 5.949101,-3.22998 z" />
      <path
         id="path3403"
         style="font-style:normal;font-variant:normal;font-weight:normal;font-stretch:normal;font-size:33.75px;font-family:'DejaVu Sans Mono';-inkscape-font-specification:'DejaVu Sans Mono'"
         d="m 122.73267,233.86819 -1.00525,0 q -2.6532,0 -4.00452,0.93933 -1.33484,0.92285 -1.33484,2.76856 0,1.66442 1.00525,2.58728 1.00525,0.92285 2.78503,0.92285 2.50489,0 3.9386,-1.73035 1.43372,-1.74683 1.4502,-4.81201 l 0,-0.67566 -2.83447,0 z m 5.88317,-1.25244 0,10.53039 -3.0487,0 0,-2.73559 q -0.97229,1.64795 -2.45545,2.43896 -1.46667,0.77454 -3.57605,0.77454 -2.81799,0 -4.4989,-1.58203 -1.68091,-1.59851 -1.68091,-4.26819 0,-3.08167 2.05994,-4.68018 2.07642,-1.59851 6.08093,-1.59851 l 4.07044,0 0,-0.4779 q -0.0165,-2.20825 -1.12061,-3.19702 -1.10412,-1.00525 -3.52661,-1.00525 -1.54907,0 -3.1311,0.44494 -1.58203,0.44495 -3.08167,1.30188 l 0,-3.03222 q 1.68091,-0.6427 3.2135,-0.95581 1.54908,-0.32959 2.99927,-0.32959 2.29065,0 3.90564,0.67566 1.63147,0.67565 2.63672,2.02697 0.62622,0.82398 0.88989,2.04346 0.26367,1.203 0.26367,3.62549 z" />
      <path
         id="path3405"
         style="font-style:normal;font-variant:normal;font-weight:normal;font-stretch:normal;font-size:33.75px;font-family:'DejaVu Sans Mono';-inkscape-font-specification:'DejaVu Sans Mono'"
         d="m 149.79199,233.15957 0,1.48316 -13.13415,0 0,0.0989 q 0,3.01575 1.56555,4.6637 1.58203,1.64795 4.44946,1.64795 1.4502,0 3.03223,-0.46143 1.58203,-0.46142 3.37829,-1.40075 l 0,3.01574 q -1.73034,0.70862 -3.34533,1.05469 -1.59851,0.36255 -3.09815,0.36255 -4.30114,0 -6.72363,-2.5708 -2.42249,-2.58728 -2.42249,-7.11914 0,-4.41651 2.37305,-7.05323 2.37305,-2.63671 6.32813,-2.63671 3.52661,0 5.55359,2.38952 2.04345,2.38953 2.04345,6.52588 z m -3.03222,-0.88989 q -0.0659,-2.66968 -1.26893,-4.05396 -1.18652,-1.40075 -3.42773,-1.40075 -2.19177,0 -3.60901,1.45019 -1.41723,1.4502 -1.68091,4.021 l 9.98658,-0.0165 z" />
      <path
         id="path3407"
         style="font-style:normal;font-variant:normal;font-weight:normal;font-stretch:normal;font-size:33.75px;font-family:'DejaVu Sans Mono';-inkscape-font-specification:'DejaVu Sans Mono'"
         d="m 161.9209,231.46218 q -2.22473,0 -3.44422,1.25245 -1.203,1.23596 -1.203,3.51013 0,2.27417 1.21948,3.54309 1.23597,1.25244 3.42774,1.25244 2.24121,0 3.44421,-1.23596 1.21948,-1.25244 1.21948,-3.55957 0,-2.25769 -1.23596,-3.51013 -1.21948,-1.25245 -3.42773,-1.25245 z m -2.90039,-1.38427 q -2.12586,-0.54383 -3.32886,-2.02698 -1.18652,-1.48316 -1.18652,-3.57605 0,-2.93335 1.99402,-4.64722 1.99401,-1.73034 5.42175,-1.73034 3.44421,0 5.43823,1.73034 1.99402,1.71387 1.99402,4.64722 0,2.09289 -1.203,3.57605 -1.18653,1.48315 -3.31238,2.02698 2.47192,0.54382 3.7738,2.19177 1.31836,1.64795 1.31836,4.26819 0,3.32885 -2.12585,5.20752 -2.12586,1.87866 -5.88318,1.87866 -3.75733,0 -5.88318,-1.86218 -2.10938,-1.87867 -2.10938,-5.19104 0,-2.63672 1.30188,-4.28467 1.31836,-1.66443 3.79029,-2.20825 z m -1.20301,-5.28992 q 0,1.97754 1.05469,3.01575 1.05469,1.0382 3.04871,1.0382 2.0105,0 3.06518,-1.0382 1.05469,-1.03821 1.05469,-3.01575 0,-2.0105 -1.05469,-3.06519 -1.0382,-1.05468 -3.06518,-1.05468 -1.99402,0 -3.04871,1.07116 -1.05469,1.05469 -1.05469,3.04871 z" />
      <path
         id="path3409"
         style="font-style:normal;font-variant:normal;font-weight:normal;font-stretch:normal;font-size:33.75px;font-family:'DejaVu Sans Mono';-inkscape-font-specification:'DejaVu Sans Mono'"
         d="m 190.39746,233.15957 0,1.48316 -13.13415,0 0,0.0989 q 0,3.01575 1.56555,4.6637 1.58203,1.64795 4.44946,1.64795 1.4502,0 3.03223,-0.46143 1.58203,-0.46142 3.37829,-1.40075 l 0,3.01574 q -1.73034,0.70862 -3.34533,1.05469 -1.59851,0.36255 -3.09815,0.36255 -4.30115,0 -6.72363,-2.5708 -2.42249,-2.58728 -2.42249,-7.11914 0,-4.41651 2.37305,-7.05323 2.37305,-2.63671 6.32813,-2.63671 3.52661,0 5.55358,2.38952 2.04346,2.38953 2.04346,6.52588 z m -3.03223,-0.88989 q -0.0659,-2.66968 -1.26892,-4.05396 -1.18652,-1.40075 -3.42773,-1.40075 -2.19177,0 -3.60901,1.45019 -1.41724,1.4502 -1.68091,4.021 l 9.98657,-0.0165 z" />
      <path
         id="path3411"
         style="font-style:normal;font-variant:normal;font-weight:normal;font-stretch:normal;font-size:33.75px;font-family:'DejaVu Sans Mono';-inkscape-font-specification:'DejaVu Sans Mono'"
         d="m 202.52637,231.46218 q -2.22473,0 -3.44422,1.25245 -1.203,1.23596 -1.203,3.51013 0,2.27417 1.21948,3.54309 1.23596,1.25244 3.42774,1.25244 2.24121,0 3.44421,-1.23596 1.21948,-1.25244 1.21948,-3.55957 0,-2.25769 -1.23596,-3.51013 -1.21948,-1.25245 -3.42773,-1.25245 z m -2.90039,-1.38427 q -2.12586,-0.54383 -3.32886,-2.02698 -1.18652,-1.48316 -1.18652,-3.57605 0,-2.93335 1.99401,-4.64722 1.99402,-1.73034 5.42176,-1.73034 3.44421,0 5.43823,1.73034 1.99402,1.71387 1.99402,4.64722 0,2.09289 -1.203,3.57605 -1.18653,1.48315 -3.31238,2.02698 2.47192,0.54382 3.7738,2.19177 1.31836,1.64795 1.31836,4.26819 0,3.32885 -2.12585,5.20752 -2.12586,1.87866 -5.88318,1.87866 -3.75733,0 -5.88318,-1.86218 -2.10938,-1.87867 -2.10938,-5.19104 0,-2.63672 1.30188,-4.28467 1.31836,-1.66443 3.79029,-2.20825 z m -1.20301,-5.28992 q 0,1.97754 1.05469,3.01575 1.05469,1.0382 3.04871,1.0382 2.0105,0 3.06518,-1.0382 1.05469,-1.03821 1.05469,-3.01575 0,-2.0105 -1.05469,-3.06519 -1.03821,-1.05468 -3.06518,-1.05468 -1.99402,0 -3.04871,1.07116 -1.05469,1.05469 -1.05469,3.04871 z" />
      <path
         id="path3413"
         style="font-style:normal;font-variant:normal;font-weight:normal;font-stretch:normal;font-size:33.75px;font-family:'DejaVu Sans Mono';-inkscape-font-specification:'DejaVu Sans Mono'"
         d="m 229.00891,219.08608 0,3.06519 q -1.03821,-0.60974 -2.20825,-0.92285 -1.17004,-0.32959 -2.43897,-0.32959 -3.16406,0 -4.79553,2.38953 -1.63147,2.37304 -1.63147,7.00378 0.79102,-1.64795 2.19177,-2.52136 1.40076,-0.8899 3.21351,-0.8899 3.55957,0 5.50415,2.19178 1.96106,2.17529 1.96106,6.17981 0,3.98803 -2.0105,6.17981 -2.0105,2.19177 -5.65247,2.19177 -4.28467,0 -6.27868,-3.06519 -1.99402,-3.08166 -1.99402,-9.68994 0,-6.22925 2.38952,-9.49219 2.40601,-3.27941 6.95435,-3.27941 1.21948,0 2.43896,0.26367 1.21949,0.24719 2.35657,0.72509 z m -5.93262,10.39856 q -2.12585,0 -3.34533,1.5326 -1.21949,1.53259 -1.21949,4.23523 0,2.70263 1.21949,4.23523 1.21948,1.53259 3.34533,1.53259 2.20826,0 3.32886,-1.4502 1.12061,-1.46667 1.12061,-4.31762 0,-2.86743 -1.12061,-4.31763 -1.1206,-1.4502 -3.32886,-1.4502 z" />
      <path
         id="path3415"
         style="font-style:normal;font-variant:normal;font-weight:normal;font-stretch:normal;font-size:33.75px;font-family:'DejaVu Sans Mono';-inkscape-font-specification:'DejaVu Sans Mono'"
         d="m 243.13184,231.46218 q -2.22474,0 -3.44422,1.25245 -1.203,1.23596 -1.203,3.51013 0,2.27417 1.21948,3.54309 1.23596,1.25244 3.42774,1.25244 2.24121,0 3.44421,-1.23596 1.21948,-1.25244 1.21948,-3.55957 0,-2.25769 -1.23596,-3.51013 -1.21948,-1.25245 -3.42773,-1.25245 z m -2.90039,-1.38427 q -2.12586,-0.54383 -3.32886,-2.02698 -1.18653,-1.48316 -1.18653,-3.57605 0,-2.93335 1.99402,-4.64722 1.99402,-1.73034 5.42176,-1.73034 3.44421,0 5.43823,1.73034 1.99402,1.71387 1.99402,4.64722 0,2.09289 -1.20301,3.57605 -1.18652,1.48315 -3.31237,2.02698 2.47192,0.54382 3.7738,2.19177 1.31836,1.64795 1.31836,4.26819 0,3.32885 -2.12586,5.20752 -2.12585,1.87866 -5.88317,1.87866 -3.75733,0 -5.88318,-1.86218 -2.10938,-1.87867 -2.10938,-5.19104 0,-2.63672 1.30188,-4.28467 1.31836,-1.66443 3.79029,-2.20825 z m -1.20301,-5.28992 q 0,1.97754 1.05469,3.01575 1.05469,1.0382 3.04871,1.0382 2.01049,0 3.06518,-1.0382 1.05469,-1.03821 1.05469,-3.01575 0,-2.0105 -1.05469,-3.06519 -1.03821,-1.05468 -3.06518,-1.05468 -1.99402,0 -3.04871,1.07116 -1.05469,1.05469 -1.05469,3.04871 z" />
      <path
         id="path3417"
         style="font-style:normal;font-variant:normal;font-weight:normal;font-stretch:normal;font-size:33.75px;font-family:'DejaVu Sans Mono';-inkscape-font-specification:'DejaVu Sans Mono'"
         d="m 266.07129,229.97903 q 2.42248,0.6427 3.70788,2.29065 1.28541,1.63147 1.28541,4.08691 0,3.39478 -2.29065,5.33936 -2.27417,1.9281 -6.31165,1.9281 -1.69739,0 -3.46069,-0.31311 -1.76331,-0.31311 -3.4607,-0.90637 l 0,-3.31238 q 1.68091,0.87341 3.31238,1.30188 1.63147,0.42847 3.24646,0.42847 2.7356,0 4.20227,-1.23597 1.46668,-1.23596 1.46668,-3.55957 0,-2.14233 -1.46668,-3.39477 -1.46667,-1.26892 -3.97156,-1.26892 l -2.53784,0 0,-2.7356 2.53784,0 q 2.29065,0 3.57605,-1.00525 1.2854,-1.00525 1.2854,-2.80151 0,-1.89514 -1.203,-2.90039 -1.18652,-1.02173 -3.39477,-1.02173 -1.46668,0 -3.03223,0.32959 -1.56555,0.32959 -3.27942,0.98877 l 0,-3.06519 q 1.99402,-0.52734 3.54309,-0.79101 1.56555,-0.26367 2.76856,-0.26367 3.59253,0 5.73486,1.81274 2.15881,1.79626 2.15881,4.77905 0,2.02698 -1.13708,3.3783 -1.12061,1.35132 -3.27942,1.91162 z" />
      <path
         id="path3419"
         style="font-style:normal;font-variant:normal;font-weight:normal;font-stretch:normal;font-size:33.75px;font-family:'DejaVu Sans Mono';-inkscape-font-specification:'DejaVu Sans Mono'"
         d="m 291.91113,233.15957 0,1.48316 -13.13415,0 0,0.0989 q 0,3.01575 1.56555,4.6637 1.58203,1.64795 4.44946,1.64795 1.4502,0 3.03223,-0.46143 1.58203,-0.46142 3.37829,-1.40075 l 0,3.01574 q -1.73034,0.70862 -3.34533,1.05469 -1.59851,0.36255 -3.09815,0.36255 -4.30114,0 -6.72363,-2.5708 -2.42248,-2.58728 -2.42248,-7.11914 0,-4.41651 2.37304,-7.05323 2.37305,-2.63671 6.32813,-2.63671 3.52661,0 5.55359,2.38952 2.04345,2.38953 2.04345,6.52588 z m -3.03222,-0.88989 q -0.0659,-2.66968 -1.26892,-4.05396 -1.18653,-1.40075 -3.42774,-1.40075 -2.19177,0 -3.60901,1.45019 -1.41723,1.4502 -1.68091,4.021 l 9.98658,-0.0165 z" />
      <path
         id="path3421"
         style="font-style:normal;font-variant:normal;font-weight:normal;font-stretch:normal;font-size:33.75px;font-family:'DejaVu Sans Mono';-inkscape-font-specification:'DejaVu Sans Mono'"
         d="m 303.71045,232.23672 q 2.12585,0 3.32886,-1.53259 1.21948,-1.5326 1.21948,-4.23523 0,-2.70264 -1.21948,-4.23523 -1.20301,-1.53259 -3.32886,-1.53259 -2.20825,0 -3.32886,1.46667 -1.1206,1.4502 -1.1206,4.30115 0,2.86743 1.10412,4.31762 1.12061,1.4502 3.34534,1.4502 z m -5.93262,10.39856 0,-3.06519 q 1.03821,0.60974 2.20825,0.93933 1.17005,0.31312 2.43897,0.31312 3.16406,0 4.77905,-2.37305 1.63147,-2.38953 1.63147,-7.02027 -0.77453,1.64795 -2.17529,2.53785 -1.40076,0.87341 -3.2135,0.87341 -3.55957,0 -5.52063,-2.19177 -1.94458,-2.19178 -1.94458,-6.21277 0,-3.97156 1.99402,-6.14685 2.01049,-2.19177 5.66894,-2.19177 4.28467,0 6.27869,3.08166 1.99402,3.08167 1.99402,9.68994 0,6.21277 -2.40601,9.49219 -2.38953,3.26294 -6.95435,3.26294 -1.203,0 -2.42248,-0.26367 -1.21948,-0.2472 -2.35657,-0.7251 z" />
      <path
         id="path3423"
         style="font-style:normal;font-variant:normal;font-weight:normal;font-stretch:normal;font-size:33.75px;font-family:'DejaVu Sans Mono';-inkscape-font-specification:'DejaVu Sans Mono'"
         d="m 324.34277,231.46218 q -2.22473,0 -3.44421,1.25245 -1.203,1.23596 -1.203,3.51013 0,2.27417 1.21948,3.54309 1.23596,1.25244 3.42773,1.25244 2.24121,0 3.44422,-1.23596 1.21948,-1.25244 1.21948,-3.55957 0,-2.25769 -1.23596,-3.51013 -1.21948,-1.25245 -3.42774,-1.25245 z m -2.90039,-1.38427 q -2.12585,-0.54383 -3.32885,-2.02698 -1.18653,-1.48316 -1.18653,-3.57605 0,-2.93335 1.99402,-4.64722 1.99402,-1.73034 5.42175,-1.73034 3.44422,0 5.43824,1.73034 1.99401,1.71387 1.99401,4.64722 0,2.09289 -1.203,3.57605 -1.18652,1.48315 -3.31238,2.02698 2.47193,0.54382 3.77381,2.19177 1.31836,1.64795 1.31836,4.26819 0,3.32885 -2.12586,5.20752 -2.12585,1.87866 -5.88318,1.87866 -3.75732,0 -5.88318,-1.86218 -2.10937,-1.87867 -2.10937,-5.19104 0,-2.63672 1.30188,-4.28467 1.31836,-1.66443 3.79028,-2.20825 z m -1.203,-5.28992 q 0,1.97754 1.05469,3.01575 1.05468,1.0382 3.0487,1.0382 2.0105,0 3.06519,-1.0382 1.05469,-1.03821 1.05469,-3.01575 0,-2.0105 -1.05469,-3.06519 -1.03821,-1.05468 -3.06519,-1.05468 -1.99402,0 -3.0487,1.07116 -1.05469,1.05469 -1.05469,3.04871 z" />
      <path
         id="path3425"
         style="font-style:normal;font-variant:normal;font-weight:normal;font-stretch:normal;font-size:33.75px;font-family:'DejaVu Sans Mono';-inkscape-font-specification:'DejaVu Sans Mono'"
         d="m 340.64099,240.34463 11.30493,0 0,2.80151 -14.9469,0 0,-2.80151 q 3.08167,-3.24646 5.3888,-5.73486 2.30713,-2.48841 3.18054,-3.51014 1.64795,-2.01049 2.22473,-3.24646 0.57678,-1.25244 0.57678,-2.55432 0,-2.05993 -1.21948,-3.22998 -1.203,-1.17004 -3.31238,-1.17004 -1.49963,0 -3.14758,0.54382 -1.64795,0.54383 -3.49365,1.64795 l 0,-3.36181 q 1.69739,-0.8075 3.32885,-1.21949 1.64795,-0.41198 3.24646,-0.41198 3.60901,0 5.80079,1.9281 2.20825,1.91162 2.20825,5.02624 0,1.58203 -0.74158,3.16406 -0.7251,1.58203 -2.37305,3.49366 -0.92285,1.07116 -2.68615,2.9663 -1.74683,1.89515 -5.33936,5.66895 z" />
      <path
         id="path3427"
         style="font-style:normal;font-variant:normal;font-weight:normal;font-stretch:normal;font-size:33.75px;font-family:'DejaVu Sans Mono';-inkscape-font-specification:'DejaVu Sans Mono'"
         d="m 357.08752,218.54226 15.49073,0 0,1.41724 -8.80005,23.18664 -3.47717,0 8.56933,-21.80236 -11.78284,0 0,-2.80152 z" />
      <path
         id="path3429"
         style="font-style:normal;font-variant:normal;font-weight:normal;font-stretch:normal;font-size:33.75px;font-family:'DejaVu Sans Mono';-inkscape-font-specification:'DejaVu Sans Mono'"
         d="m 379.54907,240.34463 5.17456,0 0,-18.8031 -5.57007,1.25244 0,-3.03223 5.53711,-1.21948 3.32886,0 0,21.80237 5.10864,0 0,2.80151 -13.5791,0 0,-2.80151 z" />
      <path
         id="path3431"
         style="font-style:normal;font-variant:normal;font-weight:normal;font-stretch:normal;font-size:33.75px;font-family:'DejaVu Sans Mono';-inkscape-font-specification:'DejaVu Sans Mono'"
         d="m 406.97095,233.86819 -1.00525,0 q -2.6532,0 -4.00452,0.93933 -1.33484,0.92285 -1.33484,2.76856 0,1.66442 1.00525,2.58728 1.00525,0.92285 2.78504,0.92285 2.50488,0 3.93859,-1.73035 1.43372,-1.74683 1.4502,-4.81201 l 0,-0.67566 -2.83447,0 z m 5.88318,-1.25244 0,10.53039 -3.04871,0 0,-2.73559 q -0.97229,1.64795 -2.45544,2.43896 -1.46668,0.77454 -3.57605,0.77454 -2.818,0 -4.49891,-1.58203 -1.6809,-1.59851 -1.6809,-4.26819 0,-3.08167 2.05993,-4.68018 2.07642,-1.59851 6.08094,-1.59851 l 4.07043,0 0,-0.4779 q -0.0165,-2.20825 -1.12061,-3.19702 -1.10412,-1.00525 -3.52661,-1.00525 -1.54907,0 -3.1311,0.44494 -1.58203,0.44495 -3.08167,1.30188 l 0,-3.03222 q 1.68091,-0.6427 3.21351,-0.95581 1.54907,-0.32959 2.99926,-0.32959 2.29065,0 3.90564,0.67566 1.63147,0.67565 2.63672,2.02697 0.62622,0.82398 0.88989,2.04346 0.26368,1.203 0.26368,3.62549 z" />
      <path
         id="path3433"
         style="font-style:normal;font-variant:normal;font-weight:normal;font-stretch:normal;font-size:33.75px;font-family:'DejaVu Sans Mono';-inkscape-font-specification:'DejaVu Sans Mono'"
         d="m 425.52686,232.23672 q 2.12585,0 3.32885,-1.53259 1.21949,-1.5326 1.21949,-4.23523 0,-2.70264 -1.21949,-4.23523 -1.203,-1.53259 -3.32885,-1.53259 -2.20826,0 -3.32886,1.46667 -1.12061,1.4502 -1.12061,4.30115 0,2.86743 1.10413,4.31762 1.1206,1.4502 3.34534,1.4502 z m -5.93262,10.39856 0,-3.06519 q 1.03821,0.60974 2.20825,0.93933 1.17004,0.31312 2.43897,0.31312 3.16406,0 4.77905,-2.37305 1.63147,-2.38953 1.63147,-7.02027 -0.77454,1.64795 -2.1753,2.53785 -1.40075,0.87341 -3.2135,0.87341 -3.55957,0 -5.52063,-2.19177 -1.94458,-2.19178 -1.94458,-6.21277 0,-3.97156 1.99402,-6.14685 2.0105,-2.19177 5.66895,-2.19177 4.28467,0 6.27868,3.08166 1.99402,3.08167 1.99402,9.68994 0,6.21277 -2.406,9.49219 -2.38953,3.26294 -6.95435,3.26294 -1.203,0 -2.42248,-0.26367 -1.21949,-0.2472 -2.35657,-0.7251 z" />
      <path
         id="path3435"
         style="font-style:normal;font-variant:normal;font-weight:normal;font-stretch:normal;font-size:33.75px;font-family:'DejaVu Sans Mono';-inkscape-font-specification:'DejaVu Sans Mono'"
         d="m 451.13599,233.93411 q 0,-3.52661 -1.12061,-5.32288 -1.1206,-1.79626 -3.31238,-1.79626 -2.20825,0 -3.34533,1.81274 -1.13709,1.79627 -1.13709,5.3064 0,3.49365 1.13709,5.30639 1.13708,1.81275 3.34533,1.81275 2.19178,0 3.31238,-1.79627 1.12061,-1.79626 1.12061,-5.32287 z m -8.91541,-6.88843 q 0.7251,-1.35132 1.99402,-2.07642 1.2854,-0.72509 2.96631,-0.72509 3.32886,0 5.24048,2.5708 1.91162,2.55432 1.91162,7.05322 0,4.56482 -1.9281,7.16858 -1.91162,2.58728 -5.25696,2.58728 -1.64795,0 -2.91687,-0.70862 -1.25244,-0.7251 -2.0105,-2.09289 l 0,2.3236 -3.03223,0 0,-25.64209 3.03223,0 0,9.54163 z" />
      <path
         id="path3437"
         style="font-style:normal;font-variant:normal;font-weight:normal;font-stretch:normal;font-size:33.75px;font-family:'DejaVu Sans Mono';-inkscape-font-specification:'DejaVu Sans Mono'"
         d="m 473.79529,242.20681 q -1.21948,0.70862 -2.52136,1.05469 -1.2854,0.36255 -2.63672,0.36255 -4.28467,0 -6.70716,-2.5708 -2.406,-2.5708 -2.406,-7.11914 0,-4.54834 2.406,-7.11914 2.42249,-2.5708 6.70716,-2.5708 1.33484,0 2.60376,0.34607 1.26892,0.34606 2.55432,1.07116 l 0,3.18054 q -1.203,-1.07116 -2.42249,-1.54907 -1.203,-0.4779 -2.73559,-0.4779 -2.85096,0 -4.38355,1.8457 -1.53259,1.8457 -1.53259,5.27344 0,3.41125 1.53259,5.27343 1.54907,1.84571 4.38355,1.84571 1.58203,0 2.83447,-0.47791 1.25244,-0.49438 2.32361,-1.51611 l 0,3.14758 z" />
      <path
         id="path3439"
         style="font-style:normal;font-variant:normal;font-weight:normal;font-stretch:normal;font-size:33.75px;font-family:'DejaVu Sans Mono';-inkscape-font-specification:'DejaVu Sans Mono'"
         d="m 486.43506,232.23672 q 2.12585,0 3.32886,-1.53259 1.21948,-1.5326 1.21948,-4.23523 0,-2.70264 -1.21948,-4.23523 -1.20301,-1.53259 -3.32886,-1.53259 -2.20825,0 -3.32886,1.46667 -1.1206,1.4502 -1.1206,4.30115 0,2.86743 1.10412,4.31762 1.12061,1.4502 3.34534,1.4502 z m -5.93262,10.39856 0,-3.06519 q 1.03821,0.60974 2.20825,0.93933 1.17005,0.31312 2.43897,0.31312 3.16406,0 4.77905,-2.37305 1.63147,-2.38953 1.63147,-7.02027 -0.77454,1.64795 -2.17529,2.53785 -1.40076,0.87341 -3.2135,0.87341 -3.55957,0 -5.52063,-2.19177 -1.94458,-2.19178 -1.94458,-6.21277 0,-3.97156 1.99402,-6.14685 2.01049,-2.19177 5.66894,-2.19177 4.28467,0 6.27869,3.08166 1.99402,3.08167 1.99402,9.68994 0,6.21277 -2.40601,9.49219 -2.38953,3.26294 -6.95435,3.26294 -1.203,0 -2.42248,-0.26367 -1.21948,-0.2472 -2.35657,-0.7251 z" />
      <path
         id="path3441"
         style="font-style:normal;font-variant:normal;font-weight:normal;font-stretch:normal;font-size:33.75px;font-family:'DejaVu Sans Mono';-inkscape-font-specification:'DejaVu Sans Mono'"
         d="m 499.20667,218.54226 15.49072,0 0,1.41724 -8.80005,23.18664 -3.47717,0 8.56933,-21.80236 -11.78283,0 0,-2.80152 z" />
      <path
         id="path3443"
         style="font-style:normal;font-variant:normal;font-weight:normal;font-stretch:normal;font-size:33.75px;font-family:'DejaVu Sans Mono';-inkscape-font-specification:'DejaVu Sans Mono'"
         d="m 519.5094,218.54226 15.49072,0 0,1.41724 -8.80005,23.18664 -3.47717,0 8.56934,-21.80236 -11.78284,0 0,-2.80152 z" />
      <path
         id="path3445"
         style="font-style:normal;font-variant:normal;font-weight:normal;font-stretch:normal;font-size:33.75px;font-family:'DejaVu Sans Mono';-inkscape-font-specification:'DejaVu Sans Mono'"
         d="m 555.00623,242.20681 q -1.21949,0.70862 -2.52137,1.05469 -1.2854,0.36255 -2.63672,0.36255 -4.28466,0 -6.70715,-2.5708 -2.406,-2.5708 -2.406,-7.11914 0,-4.54834 2.406,-7.11914 2.42249,-2.5708 6.70715,-2.5708 1.33484,0 2.60376,0.34607 1.26893,0.34606 2.55433,1.07116 l 0,3.18054 q -1.20301,-1.07116 -2.42249,-1.54907 -1.203,-0.4779 -2.7356,-0.4779 -2.85095,0 -4.38354,1.8457 -1.53259,1.8457 -1.53259,5.27344 0,3.41125 1.53259,5.27343 1.54907,1.84571 4.38354,1.84571 1.58204,0 2.83448,-0.47791 1.25244,-0.49438 2.32361,-1.51611 l 0,3.14758 z" />
      <path
         id="path3447"
         style="font-style:normal;font-variant:normal;font-weight:normal;font-stretch:normal;font-size:33.75px;font-family:'DejaVu Sans Mono';-inkscape-font-specification:'DejaVu Sans Mono'"
         d="m 567.646,232.23672 q 2.12585,0 3.32885,-1.53259 1.21949,-1.5326 1.21949,-4.23523 0,-2.70264 -1.21949,-4.23523 -1.203,-1.53259 -3.32885,-1.53259 -2.20826,0 -3.32886,1.46667 -1.12061,1.4502 -1.12061,4.30115 0,2.86743 1.10413,4.31762 1.1206,1.4502 3.34534,1.4502 z m -5.93262,10.39856 0,-3.06519 q 1.03821,0.60974 2.20825,0.93933 1.17004,0.31312 2.43897,0.31312 3.16406,0 4.77905,-2.37305 1.63147,-2.38953 1.63147,-7.02027 -0.77454,1.64795 -2.17529,2.53785 -1.40076,0.87341 -3.21351,0.87341 -3.55957,0 -5.52063,-2.19177 -1.94458,-2.19178 -1.94458,-6.21277 0,-3.97156 1.99402,-6.14685 2.0105,-2.19177 5.66895,-2.19177 4.28467,0 6.27868,3.08166 1.99402,3.08167 1.99402,9.68994 0,6.21277 -2.406,9.49219 -2.38953,3.26294 -6.95435,3.26294 -1.203,0 -2.42248,-0.26367 -1.21949,-0.2472 -2.35657,-0.7251 z" />
      <path
         id="path3449"
         style="font-style:normal;font-variant:normal;font-weight:normal;font-stretch:normal;font-size:33.75px;font-family:'DejaVu Sans Mono';-inkscape-font-specification:'DejaVu Sans Mono'"
         d="m 587.94873,232.23672 q 2.12585,0 3.32886,-1.53259 1.21948,-1.5326 1.21948,-4.23523 0,-2.70264 -1.21948,-4.23523 -1.20301,-1.53259 -3.32886,-1.53259 -2.20825,0 -3.32886,1.46667 -1.1206,1.4502 -1.1206,4.30115 0,2.86743 1.10412,4.31762 1.12061,1.4502 3.34534,1.4502 z m -5.93262,10.39856 0,-3.06519 q 1.03821,0.60974 2.20826,0.93933 1.17004,0.31312 2.43896,0.31312 3.16406,0 4.77905,-2.37305 1.63147,-2.38953 1.63147,-7.02027 -0.77453,1.64795 -2.17529,2.53785 -1.40076,0.87341 -3.2135,0.87341 -3.55957,0 -5.52063,-2.19177 -1.94458,-2.19178 -1.94458,-6.21277 0,-3.97156 1.99402,-6.14685 2.0105,-2.19177 5.66894,-2.19177 4.28467,0 6.27869,3.08166 1.99402,3.08167 1.99402,9.68994 0,6.21277 -2.40601,9.49219 -2.38952,3.26294 -6.95434,3.26294 -1.20301,0 -2.42249,-0.26367 -1.21948,-0.2472 -2.35657,-0.7251 z" />
      <path
         id="path3451"
         style="font-style:normal;font-variant:normal;font-weight:normal;font-stretch:normal;font-size:33.75px;font-family:'DejaVu Sans Mono';-inkscape-font-specification:'DejaVu Sans Mono'"
         d="m 615.94739,217.50405 0,2.52137 -3.44422,0 q -1.63147,0 -2.27417,0.67566 -0.62622,0.65917 -0.62622,2.35656 l 0,1.63147 6.34461,0 0,2.35657 -6.34461,0 0,16.10046 -3.03222,0 0,-16.10046 -4.92737,0 0,-2.35657 4.92737,0 0,-1.2854 q 0,-3.03222 1.38427,-4.46594 1.40076,-1.43372 4.35059,-1.43372 l 3.64197,0 z" />
      <path
         id="path3453"
         style="font-style:normal;font-variant:normal;font-weight:normal;font-stretch:normal;font-size:33.75px;font-family:'DejaVu Sans Mono';-inkscape-font-specification:'DejaVu Sans Mono'"
         d="m 636.25012,217.50405 0,2.52137 -3.44421,0 q -1.63147,0 -2.27417,0.67566 -0.62622,0.65917 -0.62622,2.35656 l 0,1.63147 6.3446,0 0,2.35657 -6.3446,0 0,16.10046 -3.03223,0 0,-16.10046 -4.92737,0 0,-2.35657 4.92737,0 0,-1.2854 q 0,-3.03222 1.38428,-4.46594 1.40076,-1.43372 4.35058,-1.43372 l 3.64197,0 z" />
      <path
         id="path3455"
         style="font-style:normal;font-variant:normal;font-weight:normal;font-stretch:normal;font-size:33.75px;font-family:'DejaVu Sans Mono';-inkscape-font-specification:'DejaVu Sans Mono'"
         d="m 648.85693,232.23672 q 2.12586,0 3.32886,-1.53259 1.21948,-1.5326 1.21948,-4.23523 0,-2.70264 -1.21948,-4.23523 -1.203,-1.53259 -3.32886,-1.53259 -2.20825,0 -3.32885,1.46667 -1.12061,1.4502 -1.12061,4.30115 0,2.86743 1.10413,4.31762 1.1206,1.4502 3.34533,1.4502 z m -5.93261,10.39856 0,-3.06519 q 1.0382,0.60974 2.20825,0.93933 1.17004,0.31312 2.43896,0.31312 3.16407,0 4.77906,-2.37305 1.63147,-2.38953 1.63147,-7.02027 -0.77454,1.64795 -2.1753,2.53785 -1.40075,0.87341 -3.2135,0.87341 -3.55957,0 -5.52063,-2.19177 -1.94458,-2.19178 -1.94458,-6.21277 0,-3.97156 1.99402,-6.14685 2.0105,-2.19177 5.66895,-2.19177 4.28466,0 6.27868,3.08166 1.99402,3.08167 1.99402,9.68994 0,6.21277 -2.40601,9.49219 -2.38952,3.26294 -6.95434,3.26294 -1.203,0 -2.42249,-0.26367 -1.21948,-0.2472 -2.35656,-0.7251 z" />
      <path
         id="path3457"
         style="font-style:normal;font-variant:normal;font-weight:normal;font-stretch:normal;font-size:33.75px;font-family:'DejaVu Sans Mono';-inkscape-font-specification:'DejaVu Sans Mono'"
         d="m 663.78735,240.34463 5.17456,0 0,-18.8031 -5.57006,1.25244 0,-3.03223 5.53711,-1.21948 3.32885,0 0,21.80237 5.10865,0 0,2.80151 -13.57911,0 0,-2.80151 z" />
      <path
         id="path3459"
         style="font-style:normal;font-variant:normal;font-weight:normal;font-stretch:normal;font-size:33.75px;font-family:'DejaVu Sans Mono';-inkscape-font-specification:'DejaVu Sans Mono'"
         d="m 691.75305,221.57449 -7.76184,13.00232 7.76184,0 0,-13.00232 z m -0.54382,-3.03223 3.8562,0 0,16.03455 3.27942,0 0,2.70263 -3.27942,0 0,5.8667 -3.31238,0 0,-5.8667 -10.43152,0 0,-3.14758 9.8877,-15.5896 z" />
      <path
         id="path3461"
         style="font-style:normal;font-variant:normal;font-weight:normal;font-stretch:normal;font-size:33.75px;font-family:'DejaVu Sans Mono';-inkscape-font-specification:'DejaVu Sans Mono'"
         d="m 710.09473,231.46218 q -2.22473,0 -3.44422,1.25245 -1.203,1.23596 -1.203,3.51013 0,2.27417 1.21948,3.54309 1.23596,1.25244 3.42774,1.25244 2.24121,0 3.44421,-1.23596 1.21948,-1.25244 1.21948,-3.55957 0,-2.25769 -1.23596,-3.51013 -1.21948,-1.25245 -3.42773,-1.25245 z m -2.90039,-1.38427 q -2.12586,-0.54383 -3.32886,-2.02698 -1.18652,-1.48316 -1.18652,-3.57605 0,-2.93335 1.99401,-4.64722 1.99402,-1.73034 5.42176,-1.73034 3.44421,0 5.43823,1.73034 1.99402,1.71387 1.99402,4.64722 0,2.09289 -1.20301,3.57605 -1.18652,1.48315 -3.31237,2.02698 2.47192,0.54382 3.7738,2.19177 1.31836,1.64795 1.31836,4.26819 0,3.32885 -2.12585,5.20752 -2.12586,1.87866 -5.88318,1.87866 -3.75733,0 -5.88318,-1.86218 -2.10938,-1.87867 -2.10938,-5.19104 0,-2.63672 1.30188,-4.28467 1.31836,-1.66443 3.79029,-2.20825 z m -1.20301,-5.28992 q 0,1.97754 1.05469,3.01575 1.05469,1.0382 3.04871,1.0382 2.01049,0 3.06518,-1.0382 1.05469,-1.03821 1.05469,-3.01575 0,-2.0105 -1.05469,-3.06519 -1.03821,-1.05468 -3.06518,-1.05468 -1.99402,0 -3.04871,1.07116 -1.05469,1.05469 -1.05469,3.04871 z" />
      <path
         id="path3463"
         style="font-style:normal;font-variant:normal;font-weight:normal;font-stretch:normal;font-size:33.75px;font-family:'DejaVu Sans Mono';-inkscape-font-specification:'DejaVu Sans Mono'"
         d="m 723.88806,246.27725 1.12061,0 q 2.32361,0 3.03222,-0.7251 0.70862,-0.7251 0.70862,-3.04871 l 0,-4.08691 q 0,-2.5708 0.74158,-3.74085 0.74158,-1.17004 2.5708,-1.61499 -1.81274,-0.41198 -2.5708,-1.58203 -0.74158,-1.17004 -0.74158,-3.75732 l 0,-4.08692 q 0,-2.3236 -0.70862,-3.0487 -0.70861,-0.7251 -3.03222,-0.7251 l -1.12061,0 0,-2.35657 1.02173,0 q 4.10339,0 5.48767,1.21949 1.38428,1.203 1.38428,4.84497 l 0,3.95507 q 0,2.47193 0.87341,3.41126 0.88989,0.93933 3.2135,0.93933 l 1.05469,0 0,2.35657 -1.05469,0 q -2.32361,0 -3.2135,0.95581 -0.87341,0.95581 -0.87341,3.44421 l 0,3.9386 q 0,3.64197 -1.38428,4.86145 -1.38428,1.21948 -5.48767,1.21948 l -1.02173,0 0,-2.37304 z" />
    </g>
    <rect
       y="-44.780651"
       x="-31.428572"
       height="1125.7142"
       width="800"
       id="rect3344"
       style="display:inline;opacity:1;fill:#ff0000;fill-opacity:1;stroke:none;stroke-width:50;stroke-miterlimit:4;stroke-dasharray:none;stroke-opacity:1" />
    <rect
       y="35.219334"
       x="37.142876"
       height="982.85718"
       width="662.85712"
       id="rect3346"
       style="display:inline;opacity:1;fill:#ffffff;fill-opacity:1;stroke:none;stroke-width:50;stroke-miterlimit:4;stroke-dasharray:none;stroke-opacity:1" />
    <rect
       y="351.38263"
       x="142.48608"
       height="153.88498"
       width="24.222631"
       id="rect3472"
       style="opacity:1;fill:#0000ff;fill-opacity:1;stroke:none;stroke-width:50;stroke-miterlimit:4;stroke-dasharray:none;stroke-opacity:1" />
    <rect
       style="opacity:1;fill:#0000ff;fill-opacity:1;stroke:none;stroke-width:50;stroke-miterlimit:4;stroke-dasharray:none;stroke-opacity:1"
       id="rect3474"
       width="24.222631"
       height="153.88498"
       x="223.98811"
       y="351.38263" />
    <rect
       style="opacity:1;fill:#0000ff;fill-opacity:1;stroke:none;stroke-width:50;stroke-miterlimit:4;stroke-dasharray:none;stroke-opacity:1"
       id="rect3482"
       width="24.222631"
       height="153.88498"
       x="549.99628"
       y="351.38263" />
    <rect
       y="351.38263"
       x="468.4942"
       height="153.88498"
       width="24.222631"
       id="rect3480"
       style="opacity:1;fill:#0000ff;fill-opacity:1;stroke:none;stroke-width:50;stroke-miterlimit:4;stroke-dasharray:none;stroke-opacity:1" />
    <rect
       style="opacity:1;fill:#0000ff;fill-opacity:1;stroke:none;stroke-width:50;stroke-miterlimit:4;stroke-dasharray:none;stroke-opacity:1"
       id="rect3478"
       width="24.222631"
       height="153.88498"
       x="386.99219"
       y="351.38263" />
    <rect
       y="351.38263"
       x="305.49014"
       height="153.88498"
       width="24.222631"
       id="rect3476"
       style="opacity:1;fill:#0000ff;fill-opacity:1;stroke:none;stroke-width:50;stroke-miterlimit:4;stroke-dasharray:none;stroke-opacity:1" />
    <rect
       y="503.79077"
       x="100"
       height="382.85715"
       width="522.85712"
       id="rect3356"
       style="display:inline;opacity:1;fill:#ff00ff;fill-opacity:1;stroke:none;stroke-width:50;stroke-miterlimit:4;stroke-dasharray:none;stroke-opacity:1" />
    <rect
       y="789.50507"
       x="125.71429"
       height="74.285713"
       width="482.85715"
       id="rect3348"
       style="display:inline;opacity:1;fill:#803300;fill-opacity:1;stroke:none;stroke-width:50;stroke-miterlimit:4;stroke-dasharray:none;stroke-opacity:1" />
    <rect
       style="display:inline;opacity:1;fill:#803300;fill-opacity:1;stroke:none;stroke-width:50;stroke-miterlimit:4;stroke-dasharray:none;stroke-opacity:1"
       id="rect3350"
       width="482.85715"
       height="74.285713"
       x="125.71429"
       y="698.07648" />
    <rect
       y="606.64789"
       x="122.85715"
       height="74.285713"
       width="482.85715"
       id="rect3352"
       style="display:inline;opacity:1;fill:#803300;fill-opacity:1;stroke:none;stroke-width:50;stroke-miterlimit:4;stroke-dasharray:none;stroke-opacity:1" />
    <rect
       style="display:inline;opacity:1;fill:#803300;fill-opacity:1;stroke:none;stroke-width:50;stroke-miterlimit:4;stroke-dasharray:none;stroke-opacity:1"
       id="rect3354"
       width="482.85715"
       height="74.285713"
       x="122.85715"
       y="518.07642" />
    <g
       id="flowRoot3484"
       style="font-style:normal;font-variant:normal;font-weight:normal;font-stretch:normal;font-size:87.5px;line-height:125%;font-family:'Ænigma Scrawl 4 BRK';-inkscape-font-specification:'Ænigma Scrawl 4 BRK';text-align:center;letter-spacing:0px;word-spacing:0px;text-anchor:middle;fill:#000000;fill-opacity:1;stroke:none;stroke-width:1px;stroke-linecap:butt;stroke-linejoin:miter;stroke-opacity:1"
       transform="translate(0,4)">
      <path
         id="path3495"
         style=""
         d="m 261.34697,135.21415 q 0.525,-11.8125 -0.6125,-23.0125 -1.05,-11.2875 -3.5875,-22.750001 l 0,-5.25 q 0,-1.05 0.9625,-1.225 0.9625,-0.2625 1.575,-0.2625 1.3125,0 1.8375,1.05 0.6125,0.9625 0.875,2.1875 0.0875,0.7875 0.4375,2.8875 0.35,2.0125 0.7,4.375 0.4375,2.275 0.7875,4.375 0.35,2.0125 0.525,2.800001 0.2625,1.1375 0.35,2.7125 0.175,1.4875 0.525,2.8875 0.4375,1.4 1.225,2.5375 0.875,1.05 2.5375,1.3125 0.35,0.0875 1.05,0.2625 0.7875,0.0875 1.575,0.175 0.7875,0.0875 1.4,0.175 0.7,0.0875 0.875,0.0875 0.0875,0 0.9625,0.0875 0.9625,0 1.4,0 0.875,0 1.925,0 1.1375,-0.0875 2.1,-0.4375 0.9625,-0.35 1.75,-0.9625 0.7875,-0.6125 1.05,-1.8375 0.2625,-2.3625 0.2625,-4.025 0.0875,-1.6625 0.0875,-3.937501 0,-6.65 -1.75,-13.475 -0.4375,-1.4875 -1.1375,-2.8875 -0.7,-1.4875 -0.7,-3.15 0,-2.8 2.8875,-2.8 1.575,0 2.3625,1.1375 0.875,1.1375 1.4875,2.45 1.3125,5.3375 2.0125,10.15 0.7875,4.8125 0.7875,10.325001 l 0,3.0625 -2.1,21.7875 0,0.9625 q 0,0.875 0.2625,1.575 0.35,0.7 0.7,1.4 0.4375,0.6125 0.7875,1.4 0.35,0.7 0.35,1.575 0,3.325 -3.5,3.325 -1.925,0 -3.15,-1.4 -1.1375,-1.4 -1.4875,-3.15 l 0,-4.1125 q 0,-2.7125 0.0875,-4.725 0.0875,-2.0125 0.7,-4.9 -0.0875,-0.9625 -0.7,-1.575 -0.6125,-0.6125 -1.4875,-0.6125 -2.625,0 -5.3375,0.35 -2.625,0.2625 -5.1625,0.4375 -0.7,0.175 -1.575,0.9625 -0.875,0.7 -0.875,1.4875 l 0,11.9875 q 0.2625,1.05 0.2625,1.8375 0.0875,0.7 0.0875,1.6625 0,1.3125 -0.7875,2.625 -0.7,1.225 -2.275,1.225 -1.4,0 -2.1875,-0.9625 -0.7875,-0.9625 -1.1375,-2.1875 z" />
      <path
         id="path3497"
         style=""
         d="m 291.66846,125.85165 q 0,-3.0625 1.3125,-6.5625 1.4,-3.5 3.675,-6.3875 2.275,-2.975 5.3375,-4.9 3.0625,-2.0125 6.3875,-2.0125 2.8875,0 4.8125,1.575 2.0125,1.575 3.5,3.85 1.4875,2.1875 2.7125,4.6375 1.3125,2.3625 2.8,4.025 0.525,0.6125 1.8375,2.1 1.4,1.4 2.8875,3.0625 1.4875,1.575 2.8875,3.0625 1.4,1.4 1.925,2.0125 0.525,0.525 1.4875,1.1375 0.9625,0.525 1.8375,1.225 0.9625,0.6125 1.6625,1.4 0.7,0.7875 0.7,1.6625 0,0.7875 -0.2625,1.3125 -0.2625,0.525 -1.225,0.9625 l -1.75,0 q -1.3125,0 -2.45,-0.175 -1.1375,-0.2625 -2.1,-1.225 l -10.2375,-9.8 q 0,-0.0875 -0.2625,-0.175 -0.2625,-0.175 -0.4375,-0.2625 l -0.175,0 -0.175,0 q -0.2625,0.175 -0.875,0.4375 -0.6125,0.2625 -0.875,0.7 -0.0875,0.175 -0.4375,0.7875 -0.35,0.525 -0.7875,1.225 -0.35,0.6125 -0.7875,1.225 -0.35,0.525 -0.4375,0.6125 l -4.9,4.9 q -1.575,0.875 -3.0625,1.3125 -1.4875,0.4375 -3.2375,0.4375 -2.5375,0 -4.6375,-0.9625 -2.0125,-0.9625 -3.5,-2.5375 -1.4875,-1.6625 -2.3625,-3.85 -0.7875,-2.275 -0.7875,-4.8125 z m 5.95,-0.0875 q 0,2.1 1.4,4.025 1.4875,1.925 3.7625,1.925 2.8,0 4.55,-1.575 1.75,-1.6625 3.675,-3.7625 0.6125,-0.6125 0.9625,-1.4 0.4375,-0.875 0.4375,-1.75 0,-0.7 -0.35,-1.225 -0.35,-0.6125 -0.7875,-1.1375 -0.35,-0.525 -0.7,-1.1375 -0.35,-0.6125 -0.35,-1.4 0,-0.175 0,-0.525 0.0875,-0.4375 0.0875,-0.525 0,-0.175 0.35,-1.05 0.35,-0.875 0.35,-1.05 -0.6125,-0.7 -1.05,-1.05 -0.35,-0.35 -0.7875,-0.525 -0.35,-0.2625 -0.6125,-0.175 l -6.3875,2.8 q -1.225,0.525 -2.1,1.6625 -0.7875,1.05 -1.4,2.45 -0.525,1.3125 -0.7875,2.8 -0.2625,1.4 -0.2625,2.625 z" />
      <path
         id="path3499"
         style=""
         d="m 346.93564,164.78915 q 0,-3.5 0.175,-7.175 0.2625,-3.5875 0.875,-7 l 0,-14 q -0.0875,-0.35 -0.175,-1.4 -0.0875,-1.1375 -0.175,-1.4875 0,-0.4375 -0.0875,-2.3625 0,-1.925 -0.0875,-4.1125 -0.0875,-2.1875 -0.175,-4.025 0,-1.925 0,-2.45 0,-0.2625 -0.175,-1.4 -0.175,-1.1375 -0.175,-1.4 l 0,-1.1375 q 0,-0.9625 0,-2.275 0.0875,-1.3125 0.35,-2.5375 0.35,-1.225 1.05,-2.0125 0.7875,-0.875 2.1,-0.875 1.75,0 2.1875,1.75 0.0875,5.075 0.4375,10.0625 0.4375,4.9875 0.6125,9.975 0.175,0.7 0.7,1.6625 0.6125,0.875 1.575,0.875 l 0.175,-0.0875 q 0.7875,-0.175 2.625,-0.4375 1.8375,-0.2625 4.025,-0.6125 2.275,-0.35 4.6375,-0.875 2.3625,-0.525 4.2875,-1.225 1.925,-0.7875 3.15,-1.75 1.3125,-0.9625 1.3125,-2.275 0,-0.7 -0.525,-1.4 -0.4375,-0.7 -0.875,-1.225 -4.2875,-4.725 -9.625,-8.1375 -5.25,-3.5 -10.7625,-6.65 -1.1375,-0.175 -2.1,-0.875 -0.875,-0.7875 -1.75,-1.575 -0.875,-0.7875 -1.8375,-1.4 -0.875,-0.7 -2.0125,-0.7 -1.05,0 -1.925,0.7875 -0.7875,0.7875 -1.3125,1.925 -0.525,1.1375 -0.7875,2.3625 -0.2625,1.1375 -0.2625,2.0125 0,1.225 0.35,2.5375 0.35,1.225 0.35,2.5375 0,0.2625 -0.175,0.9625 -0.0875,0.6125 -0.525,0.6125 l -2.45,0 q -0.35,0 -0.875,-0.7875 -0.525,-0.875 -1.05,-2.0125 -0.525,-1.225 -0.875,-2.3625 -0.35,-1.225 -0.35,-1.925 0,-0.6125 0,-0.9625 0.0875,-0.4375 0.35,-1.1375 0.525,-1.4875 1.1375,-3.4125 0.7,-1.925 1.75,-3.675 1.05,-1.750001 2.45,-2.887501 1.4875,-1.225 3.5875,-1.225 0.9625,0 2.1,0.2625 1.1375,0.2625 2.0125,0.7875 l 21.7875,14.087501 q 1.575,1.05 3.5,2.7125 2.0125,1.575 3.675,3.5 1.75,1.8375 2.8875,4.025 1.1375,2.1 1.1375,4.2875 0,3.0625 -2.0125,5.075 -2.0125,1.925 -4.9,3.15 -2.8875,1.1375 -6.0375,1.8375 -3.15,0.6125 -5.3375,1.05 -0.2625,0 -1.225,0.175 -0.875,0.175 -1.925,0.4375 -1.05,0.2625 -2.0125,0.525 -0.875,0.175 -1.1375,0.2625 -1.575,0.2625 -2.45,0.525 -0.7875,0.2625 -1.4,1.925 -0.0875,0.875 -0.2625,3.0625 -0.175,2.1875 -0.35,4.6375 -0.175,2.45 -0.35,4.6375 -0.0875,2.1875 -0.0875,3.0625 l 0,0.6125 q 0,1.05 0.6125,1.575 0.6125,0.6125 1.3125,1.1375 0.7,0.525 1.3125,1.05 0.6125,0.6125 0.6125,1.6625 0,1.225 -0.6125,2.3625 -0.525,1.1375 -1.4875,2.0125 -0.9625,0.875 -2.1875,1.4 -1.1375,0.525 -2.275,0.525 -2.275,0 -3.15,-1.575 -0.875,-1.575 -0.875,-3.5875 z" />
      <path
         id="path3501"
         style=""
         d="m 393.67637,164.78915 q 0,-3.5 0.175,-7.175 0.2625,-3.5875 0.875,-7 l 0,-14 q -0.0875,-0.35 -0.175,-1.4 -0.0875,-1.1375 -0.175,-1.4875 0,-0.4375 -0.0875,-2.3625 0,-1.925 -0.0875,-4.1125 -0.0875,-2.1875 -0.175,-4.025 0,-1.925 0,-2.45 0,-0.2625 -0.175,-1.4 -0.175,-1.1375 -0.175,-1.4 l 0,-1.1375 q 0,-0.9625 0,-2.275 0.0875,-1.3125 0.35,-2.5375 0.35,-1.225 1.05,-2.0125 0.7875,-0.875 2.1,-0.875 1.75,0 2.1875,1.75 0.0875,5.075 0.4375,10.0625 0.4375,4.9875 0.6125,9.975 0.175,0.7 0.7,1.6625 0.6125,0.875 1.575,0.875 l 0.175,-0.0875 q 0.7875,-0.175 2.625,-0.4375 1.8375,-0.2625 4.025,-0.6125 2.275,-0.35 4.6375,-0.875 2.3625,-0.525 4.2875,-1.225 1.925,-0.7875 3.15,-1.75 1.3125,-0.9625 1.3125,-2.275 0,-0.7 -0.525,-1.4 -0.4375,-0.7 -0.875,-1.225 -4.2875,-4.725 -9.625,-8.1375 -5.25,-3.5 -10.7625,-6.65 -1.1375,-0.175 -2.1,-0.875 -0.875,-0.7875 -1.75,-1.575 -0.875,-0.7875 -1.8375,-1.4 -0.875,-0.7 -2.0125,-0.7 -1.05,0 -1.925,0.7875 -0.7875,0.7875 -1.3125,1.925 -0.525,1.1375 -0.7875,2.3625 -0.2625,1.1375 -0.2625,2.0125 0,1.225 0.35,2.5375 0.35,1.225 0.35,2.5375 0,0.2625 -0.175,0.9625 -0.0875,0.6125 -0.525,0.6125 l -2.45,0 q -0.35,0 -0.875,-0.7875 -0.525,-0.875 -1.05,-2.0125 -0.525,-1.225 -0.875,-2.3625 -0.35,-1.225 -0.35,-1.925 0,-0.6125 0,-0.9625 0.0875,-0.4375 0.35,-1.1375 0.525,-1.4875 1.1375,-3.4125 0.7,-1.925 1.75,-3.675 1.05,-1.750001 2.45,-2.887501 1.4875,-1.225 3.5875,-1.225 0.9625,0 2.1,0.2625 1.1375,0.2625 2.0125,0.7875 l 21.7875,14.087501 q 1.575,1.05 3.5,2.7125 2.0125,1.575 3.675,3.5 1.75,1.8375 2.8875,4.025 1.1375,2.1 1.1375,4.2875 0,3.0625 -2.0125,5.075 -2.0125,1.925 -4.9,3.15 -2.8875,1.1375 -6.0375,1.8375 -3.15,0.6125 -5.3375,1.05 -0.2625,0 -1.225,0.175 -0.875,0.175 -1.925,0.4375 -1.05,0.2625 -2.0125,0.525 -0.875,0.175 -1.1375,0.2625 -1.575,0.2625 -2.45,0.525 -0.7875,0.2625 -1.4,1.925 -0.0875,0.875 -0.2625,3.0625 -0.175,2.1875 -0.35,4.6375 -0.175,2.45 -0.35,4.6375 -0.0875,2.1875 -0.0875,3.0625 l 0,0.6125 q 0,1.05 0.6125,1.575 0.6125,0.6125 1.3125,1.1375 0.7,0.525 1.3125,1.05 0.6125,0.6125 0.6125,1.6625 0,1.225 -0.6125,2.3625 -0.525,1.1375 -1.4875,2.0125 -0.9625,0.875 -2.1875,1.4 -1.1375,0.525 -2.275,0.525 -2.275,0 -3.15,-1.575 -0.875,-1.575 -0.875,-3.5875 z" />
      <path
         id="path3503"
         style=""
         d="m 429.08721,180.88915 q 0,-0.525 -0.175,-1.75 -0.0875,-1.1375 -0.2625,-2.5375 -0.0875,-1.3125 -0.175,-2.5375 -0.0875,-1.1375 -0.0875,-1.6625 l 0,-1.05 q 0,-0.35 -0.0875,-1.05 0,-0.7 0.0875,-1.4 0.0875,-0.7 0.2625,-1.225 0.2625,-0.525 0.7875,-0.525 l 2.45,0 q 0.35,0 0.6125,1.8375 0.35,1.925 0.9625,4.375 0.7,2.45 1.75,4.8125 1.1375,2.45 2.975,3.4125 l 2.3625,0 q 3.15,0 6.475,-0.9625 3.325,-0.9625 6.2125,-2.7125 2.975,-1.75 5.25,-4.375 2.275,-2.5375 3.325,-5.6875 0.9625,-3.0625 1.1375,-5.8625 0.2625,-2.7125 0.2625,-5.95 l 0,-4.725 q -0.175,-0.7875 -0.525,-2.7125 -0.35,-1.8375 -0.7875,-4.025 -0.35,-2.1 -0.7,-4.025 -0.35,-1.8375 -0.4375,-2.5375 -0.175,-0.6125 -0.35,-1.4 -0.175,-0.7875 -0.525,-1.4 -0.2625,-0.6125 -0.7875,-1.05 -0.4375,-0.4375 -1.3125,-0.4375 -1.6625,0 -3.15,0.4375 -1.4875,0.35 -3.0625,0.35 -5.5125,0 -8.8375,-3.325 -3.325,-3.4125 -4.55,-8.6625 l 0,-3.5 q 0,-1.8375 0.175,-4.025 0.175,-2.275 0.875,-4.2 0.7,-1.925 2.1,-3.15 1.4,-1.3125 3.9375,-1.3125 2.3625,0 3.4125,1.575 1.1375,1.4875 1.1375,3.7625 0,1.4 -0.875,2.1 -0.7875,0.6125 -1.8375,1.225 -0.9625,0.525 -1.8375,1.3125 -0.7875,0.7 -0.7875,2.275 0,1.575 0.4375,3.325 0.525,1.6625 1.4875,3.15 0.9625,1.4875 2.275,2.45 1.4,0.9625 3.2375,0.9625 1.8375,0 3.0625,-0.6125 1.225,-0.6125 1.925,-1.6625 0.7875,-1.05 1.05,-2.3625 0.35,-1.4 0.35,-2.8875 0,-1.05 0,-2.0125 0,-1.05 -0.0875,-2.0125 0.4375,-1.05 1.05,-1.75 0.7,-0.7875 1.925,-0.7875 1.3125,0 2.1,1.05 0.7875,0.9625 1.1375,2.275 0.4375,1.3125 0.6125,2.7125 0.175,1.3125 0.2625,2.1 0,0.2625 0,0.9625 0.0875,0.6125 0.175,1.3125 0.0875,0.7 0.0875,1.4 0.0875,0.6125 0.0875,0.875 l 3.85,22.4875 0,0.7 q 0,0.6125 0,1.4 0.0875,0.875 0.0875,1.75 l 0,1.4 q 0,3.675 -0.175,6.7375 -0.0875,3.15 -0.9625,6.65 -1.05,4.1125 -3.9375,7.7 -2.8,3.5875 -6.5625,6.3 -3.7625,2.7125 -8.1375,4.2 -4.2875,1.575 -8.3125,1.575 -2.0125,0 -4.025,-0.2625 -2.0125,-0.2625 -3.7625,-1.05 -1.6625,-0.7 -2.8875,-2.1 -1.225,-1.4 -1.75,-3.675 z" />
      <path
         id="path3505"
         style=""
         d="m 198.03389,246.33915 q 0,-1.1375 0.35,-2.275 0.35,-1.1375 1.05,-2.0125 0.7,-0.9625 1.6625,-1.4875 0.9625,-0.6125 2.1875,-0.6125 2.5375,0 2.5375,2.7125 0,0.7875 -0.35,1.4 -0.35,0.6125 -0.35,1.4 0,1.1375 1.05,1.8375 1.05,0.7 2.45,1.225 1.4,0.4375 2.8,0.7 1.4,0.175 2.1,0.2625 2.275,0.2625 4.6375,0.2625 2.3625,0.0875 4.6375,0.0875 l 3.0625,0 q 0.2625,0 1.8375,-0.175 1.6625,-0.175 3.675,-0.35 2.1,-0.2625 4.1125,-0.4375 2.1,-0.2625 3.325,-0.4375 1.3125,-0.175 3.325,-0.7875 2.1,-0.7 4.025,-1.75 1.925,-1.05 3.2375,-2.45 1.4,-1.4875 1.4,-3.15 0,-1.925 -0.875,-3.9375 -0.875,-2.0125 -1.575,-3.7625 -0.525,-1.225 -1.4875,-2.3625 -0.875,-1.225 -1.925,-2.275 -1.05,-1.1375 -2.1875,-2.1 -1.05,-0.9625 -1.8375,-1.6625 -1.925,-1.8375 -4.8125,-2.975 -2.8,-1.1375 -5.95,-1.8375 -3.15,-0.7 -6.3,-0.9625 -3.0625,-0.2625 -5.425,-0.2625 l -2.8,0 q -1.1375,0.4375 -1.8375,1.1375 -0.7,0.7 -0.7,2.0125 0,0.175 0,0.6125 0.0875,0.35 0.0875,0.4375 0.0875,0.7875 0.35,2.7125 0.2625,1.925 0.525,4.025 0.2625,2.1 0.525,4.025 0.2625,1.8375 0.35,2.625 0,0.175 0,1.225 0.0875,0.9625 0.0875,1.4 0,0.35 -0.0875,1.4 0,0.9625 0,1.225 -0.175,0.9625 -1.05,1.575 -0.7875,0.6125 -1.75,0.6125 -1.925,0 -2.45,-1.8375 -0.175,-4.9875 -0.9625,-9.975 -0.7,-5.075 -1.8375,-10.0625 -0.175,-0.7875 -0.6125,-1.4 -0.35,-0.6125 -0.7875,-1.225 -0.4375,-0.6125 -0.7875,-1.225 -0.35,-0.7 -0.35,-1.6625 0,-1.3125 0.525,-2.45 0.6125,-1.1375 0.6125,-2.45 0,-2.5375 -0.875,-4.55 -0.7875,-2.1 -1.225,-4.6375 -0.175,-0.6125 -0.2625,-2.5375 -0.0875,-1.925 -0.0875,-3.4125 l 0,-1.4875 q -0.175,-0.525 -0.7,-1.1375 -0.4375,-0.6125 -1.05,-0.6125 -0.7,0 -1.1375,0.6125 -0.4375,0.525 -0.9625,1.225 -0.525,0.6125 -1.1375,1.225 -0.6125,0.525 -1.6625,0.525 -0.9625,0 -2.1,-0.35 -1.05,-0.4375 -2.0125,-1.1375 -0.9625,-0.7875 -1.6625,-1.6625 -0.6125,-0.9625 -0.6125,-2.0125 0,-1.75 1.1375,-2.7125 1.225,-1.05 2.7125,-1.6625 0.7,-0.0875 2.3625,-0.2625 1.75,-0.175 3.5875,-0.35 1.925,-0.175 3.5875,-0.2625 1.75,-0.175 2.45,-0.175 l 1.6625,0 1.4875,0 q 0.35,0 1.3125,0.175 1.05,0.0875 2.1875,0.2625 1.225,0.175 2.275,0.35 1.05,0.175 1.575,0.2625 3.675,0.6125 7.0875,2.1 3.4125,1.4875 6.65,2.8 2.3625,0.9625 4.375,2.8 2.0125,1.75 2.0125,4.4625 0,2.8875 -1.6625,4.9 -1.575,1.925 -3.5,3.325 -1.925,1.4 -3.5875,2.45 -1.575,0.9625 -1.575,1.925 0,0.9625 1.4875,1.575 1.4875,0.6125 3.325,1.05 1.925,0.35 3.7625,0.6125 1.925,0.175 2.7125,0.4375 1.75,0.7 3.5875,2.1 1.8375,1.3125 3.0625,2.45 2.45,2.275 4.6375,4.6375 2.275,2.275 3.9375,4.8125 1.75,2.5375 2.7125,5.5125 1.05,2.8875 1.05,6.3875 0,2.8875 -1.05,5.3375 -0.9625,2.45 -3.85,3.9375 -0.525,0.2625 -1.75,0.875 -1.225,0.6125 -2.625,1.225 -1.4,0.7 -2.7125,1.225 -1.225,0.6125 -1.75,0.875 -1.3125,0.4375 -2.7125,0.525 -1.4,0.175 -2.8875,0.2625 -1.4,0.0875 -2.8,0.175 -1.4,0.0875 -2.8,0.4375 l -17.2375,0 q -1.75,0 -4.4625,-0.7 -2.7125,-0.6125 -5.3375,-1.925 -2.625,-1.225 -4.55,-2.975 -1.8375,-1.75 -1.8375,-3.85 z m 14.4375,-40.075 q -0.175,0.875 0.35,2.1875 0.6125,1.3125 1.75,1.3125 1.1375,0 2.5375,-0.7875 1.4,-0.875 2.3625,-1.3125 1.575,-0.7875 2.8875,-1.4875 1.4,-0.7 2.5375,-1.4875 1.225,-0.875 2.3625,-1.925 1.1375,-1.05 2.45,-2.45 0.0875,-0.0875 0.175,-0.35 0.175,-0.2625 0.175,-0.4375 -0.2625,-1.575 -1.75,-2.45 -1.4875,-0.875 -3.4125,-1.4 -1.8375,-0.6125 -3.7625,-0.9625 -1.925,-0.35 -3.0625,-0.7875 -0.9625,-0.35 -1.575,-0.6125 -0.6125,-0.2625 -1.225,-0.4375 -0.525,-0.175 -1.225,-0.2625 -0.6125,-0.0875 -1.575,-0.0875 l -2.1,0 q -0.175,0.0875 -0.4375,0.35 -0.175,0.2625 -0.2625,0.35 l 0,0.175 0,0.175 q 0.0875,0.175 0.35,0.875 0.2625,0.7 0.35,0.875 l 0.35,1.05 q 0.0875,0.525 0.35,2.0125 0.2625,1.4 0.525,2.975 0.2625,1.575 0.525,2.975 0.2625,1.4 0.35,1.925 z" />
      <path
         id="path3507"
         style=""
         d="m 259.91895,222.88915 q 0,-0.7875 0.0875,-1.6625 0.175,-0.875 0.525,-1.6625 0.35,-0.7875 0.9625,-1.225 0.6125,-0.525 1.6625,-0.525 1.1375,0 1.6625,0.7875 0.6125,0.7875 0.875,1.925 0.2625,1.05 0.35,2.1 0.0875,1.05 0.2625,1.575 0.6125,2.7125 1.3125,5.775 0.7875,3.0625 1.8375,5.775 0.6125,1.75 1.6625,3.5875 1.1375,1.75 1.1375,3.5875 0,1.225 -0.6125,2.0125 -0.6125,0.7875 -1.925,0.7875 -1.575,0 -2.975,-1.4 -1.3125,-1.4 -2.45,-3.5875 -1.05,-2.1875 -1.925,-4.8125 -0.7875,-2.7125 -1.4,-5.25 -0.525,-2.5375 -0.7875,-4.6375 -0.2625,-2.1 -0.2625,-3.15 z m -5.25,-25.2 q 0,-1.225 0.525,-2.1 0.525,-0.9625 2.0125,-0.9625 1.225,0 2.7125,1.05 1.575,0.9625 2.8875,2.45 1.3125,1.4875 2.1875,3.15 0.9625,1.6625 0.9625,2.8875 0,2.1 -2.275,2.1 -1.8375,0 -3.4125,-1.4 -1.575,-1.4 -2.8,-2.45 -1.225,-1.05 -2.0125,-2.0125 -0.7875,-1.05 -0.7875,-2.7125 z" />
      <path
         id="path3509"
         style=""
         d="m 274.06592,244.58915 0,-4.2 q 0,-2.975 0.2625,-5.425 0.2625,-2.5375 0.9625,-5.5125 l 0,-14.7 q 0.7,-0.9625 1.225,-1.75 0.6125,-0.7875 1.925,-0.7875 0.4375,0 0.7875,0.0875 0.4375,0 0.7875,0.35 1.6625,1.75 3.325,3.4125 1.6625,1.575 3.5,2.8 1.8375,1.1375 3.9375,1.8375 2.1,0.7 4.725,0.7 1.575,0 3.0625,-0.35 1.4875,-0.35 3.0625,-0.35 1.225,0 2.1,0.6125 0.875,0.525 0.875,1.8375 0,1.75 -1.225,2.7125 -1.225,0.875 -2.975,1.3125 -1.6625,0.4375 -3.5,0.525 -1.75,0.0875 -2.8,0.0875 -2.0125,0 -4.1125,-0.35 -2.0125,-0.4375 -4.025,-0.4375 -2.0125,0 -2.975,1.3125 -0.875,1.225 -1.575,2.8875 l 0,2.3625 q 0,1.4875 0.175,2.8875 0.175,1.4 0.175,2.8875 0,2.5375 -0.7875,4.4625 -0.7875,1.925 -2.7125,3.5875 l -0.875,0 q -1.1375,0 -2.275,-0.7875 -1.05,-0.7875 -1.05,-2.0125 z" />
      <path
         id="path3511"
         style=""
         d="m 318.40244,225.60165 q -0.2625,-1.1375 -1.225,-1.8375 -0.875,-0.7 -2.1,-1.05 -1.1375,-0.4375 -2.3625,-0.7 -1.225,-0.2625 -2.1,-0.6125 -0.9625,-0.35 -2.1,-0.9625 -1.05,-0.6125 -2.0125,-1.4 -0.9625,-0.875 -1.575,-1.8375 -0.6125,-1.05 -0.6125,-2.1875 0,-1.1375 0.875,-1.925 0.875,-0.875 1.925,-0.875 1.225,0 2.1875,0.6125 1.05,0.525 2.0125,1.225 1.05,0.6125 2.1,1.225 1.05,0.525 2.275,0.525 1.4875,0 2.1,-1.225 0.6125,-1.3125 0.6125,-2.7125 l 0,-1.75 q 0,-1.4875 -0.2625,-2.8875 -0.175,-1.4 -0.175,-2.8875 0,-0.2625 0,-1.1375 0.0875,-0.875 0.0875,-1.1375 0.35,-0.9625 0.9625,-1.75 0.7,-0.7875 1.75,-0.7875 2.0125,0 2.8,1.75 0.7875,1.6625 0.7875,3.325 0,1.4875 -0.175,2.975 -0.175,1.4 -0.175,2.8875 0,2.275 0.4375,4.2 0.525,1.925 2.7125,3.15 0.7,0 2.3625,0.0875 1.75,0 3.5875,0.0875 1.925,0.0875 3.5875,0.175 1.75,0 2.45,0 0.7,0.0875 1.75,0.175 1.1375,0 2.1,0.2625 1.05,0.2625 1.75,0.875 0.7875,0.525 0.7875,1.575 0,1.6625 -1.1375,2.0125 -1.1375,0.2625 -2.45,0.4375 -0.7875,0 -2.8875,0.175 -2.0125,0.0875 -4.375,0.2625 -2.275,0.175 -4.375,0.35 -2.0125,0.175 -2.8,0.2625 -0.6125,0.175 -1.4,0.7875 -0.7,0.6125 -0.7,1.3125 l 0,14.0875 q 0.7,1.75 0.875,2.8875 0.2625,1.1375 0.2625,2.7125 0,1.6625 -0.7875,2.8 -0.7875,1.05 -2.5375,1.05 -1.3125,0 -2.1,-0.7875 -0.7,-0.875 -1.05,-2.0125 -0.35,-1.225 -0.4375,-2.45 -0.0875,-1.225 -0.175,-2.1 -0.35,-4.2 -0.6125,-8.575 -0.2625,-4.4625 -0.4375,-8.6625 z" />
      <path
         id="path3513"
         style=""
         d="m 364.62295,227.26415 q -1.6625,0 -2.975,1.1375 -1.3125,1.1375 -1.75,2.8 -0.0875,0.4375 -0.35,1.6625 -0.175,1.225 -0.35,2.5375 -0.175,1.3125 -0.4375,2.5375 -0.175,1.225 -0.2625,1.6625 -0.175,0.7875 -0.525,1.8375 -0.2625,0.9625 -0.7875,1.8375 -0.525,0.875 -1.225,1.4875 -0.7,0.525 -1.75,0.525 -1.4875,0 -2.3625,-1.1375 -0.7875,-1.1375 -1.1375,-2.3625 -0.0875,-10.0625 -0.9625,-19.6 -0.7875,-9.5375 -2.5375,-19.5125 l 0,-5.25 q 0,-0.7875 1.05,-1.225 1.1375,-0.525 1.75,-0.525 1.3125,0 1.925,1.4 0.7,1.3125 0.9625,3.15 0.35,1.75 0.4375,3.4125 0.0875,1.6625 0.175,2.275 0.0875,0.2625 0.35,1.575 0.35,1.225 0.6125,2.7125 0.35,1.4 0.525,2.625 0.2625,1.225 0.2625,1.4875 0.175,0.875 0.0875,2.275 0,1.3125 0.175,2.625 0.175,1.3125 0.7,2.275 0.525,0.9625 1.75,0.9625 1.4,0 2.8,-0.7 1.4,-0.7875 2.975,-0.7875 3.0625,0 5.775,1.05 2.7125,1.05 4.9,2.8875 2.275,1.75 3.85,4.2 1.575,2.45 2.3625,5.25 0.4375,1.8375 0.525,3.7625 0.0875,1.8375 0.525,3.675 0.175,0.7 0.6125,1.4875 0.525,0.7 0.9625,1.4875 0.525,0.7 0.875,1.4875 0.35,0.7 0.35,1.4875 0,1.1375 -0.7,1.75 -0.7,0.7 -1.8375,0.7 -0.875,0 -1.4,-0.175 -0.4375,-0.175 -1.3125,-0.875 -1.8375,-1.4 -2.625,-3.0625 -0.7875,-1.6625 -1.1375,-3.5 -0.2625,-1.8375 -0.4375,-3.85 -0.175,-2.0125 -0.7875,-4.025 -0.4375,-1.3125 -1.4875,-2.625 -0.9625,-1.4 -2.275,-2.45 -1.3125,-1.05 -2.8875,-1.6625 -1.4875,-0.7 -2.975,-0.7 z" />
      <path
         id="path3515"
         style=""
         d="m 406.38779,247.03915 q -1.75,0 -3.5,0.4375 -1.6625,0.35 -3.4125,0.35 -3.325,0 -5.775,-1.225 -2.45,-1.225 -4.2,-3.325 -1.6625,-2.1 -2.5375,-4.8125 -0.7875,-2.8 -0.7875,-5.8625 0,-6.0375 3.4125,-8.8375 3.4125,-2.8875 9.1875,-3.0625 0.7875,-0.35 1.3125,-0.9625 0.525,-0.6125 0.525,-1.4875 l 0,-0.35 q 0,-0.2625 -0.0875,-0.35 -0.2625,-0.875 -0.875,-3.2375 -0.6125,-2.45 -1.3125,-5.1625 -0.6125,-2.7125 -1.225,-5.075 -0.525,-2.45 -0.7875,-3.4125 -0.525,-2.5375 -1.1375,-6.125 -0.6125,-3.675 -0.6125,-6.475 0,-0.7875 0.0875,-1.6625 0.0875,-0.875 0.35,-1.575 0.35,-0.7875 0.875,-1.225 0.6125,-0.525 1.575,-0.525 1.6625,0 2.275,1.05 0.7,0.9625 0.875,2.3625 0.175,1.4 0.0875,2.975 0,1.4875 0.175,2.45 l 7.0875,30.5375 q 0.35,1.8375 0.4375,3.7625 0.175,1.8375 0.35,3.7625 0.175,1.8375 0.525,3.7625 0.35,1.8375 1.1375,3.5 0.0875,0.2625 0.35,0.7875 0.2625,0.525 0.6125,1.1375 0.35,0.6125 0.6125,1.1375 0.35,0.525 0.525,0.7875 0.4375,0.7 1.3125,1.4 0.875,0.7 1.75,1.4875 0.875,0.7875 1.4875,1.575 0.7,0.7875 0.7,1.6625 0,1.4875 -1.1375,2.1 -1.1375,0.525 -2.3625,0.525 -1.1375,0 -2.1,-0.4375 -0.9625,-0.4375 -1.925,-0.9625 -0.875,-0.525 -1.8375,-0.9625 -0.9625,-0.4375 -2.0125,-0.4375 z m -14.2625,-14.0875 q 0,4.4625 2.8,7 2.8,2.5375 7.0875,2.5375 0.6125,0 1.3125,-0.7875 0.7875,-0.7875 0.7875,-1.4875 0,-1.75 -0.525,-3.4125 -0.4375,-1.6625 -1.225,-3.15 -0.4375,-0.7 -0.9625,-1.8375 -0.525,-1.1375 -1.225,-2.1875 -0.7,-1.05 -1.6625,-1.8375 -0.875,-0.7875 -2.0125,-0.7875 -1.1375,0 -2.0125,0.6125 -0.7875,0.525 -1.3125,1.4875 -0.525,0.875 -0.7875,1.925 -0.2625,1.05 -0.2625,1.925 z" />
      <path
         id="path3517"
         style=""
         d="m 419.50049,235.22665 q 0,-3.0625 1.3125,-6.5625 1.4,-3.5 3.675,-6.3875 2.275,-2.975 5.3375,-4.9 3.0625,-2.0125 6.3875,-2.0125 2.8875,0 4.8125,1.575 2.0125,1.575 3.5,3.85 1.4875,2.1875 2.7125,4.6375 1.3125,2.3625 2.8,4.025 0.525,0.6125 1.8375,2.1 1.4,1.4 2.8875,3.0625 1.4875,1.575 2.8875,3.0625 1.4,1.4 1.925,2.0125 0.525,0.525 1.4875,1.1375 0.9625,0.525 1.8375,1.225 0.9625,0.6125 1.6625,1.4 0.7,0.7875 0.7,1.6625 0,0.7875 -0.2625,1.3125 -0.2625,0.525 -1.225,0.9625 l -1.75,0 q -1.3125,0 -2.45,-0.175 -1.1375,-0.2625 -2.1,-1.225 l -10.2375,-9.8 q 0,-0.0875 -0.2625,-0.175 -0.2625,-0.175 -0.4375,-0.2625 l -0.175,0 -0.175,0 q -0.2625,0.175 -0.875,0.4375 -0.6125,0.2625 -0.875,0.7 -0.0875,0.175 -0.4375,0.7875 -0.35,0.525 -0.7875,1.225 -0.35,0.6125 -0.7875,1.225 -0.35,0.525 -0.4375,0.6125 l -4.9,4.9 q -1.575,0.875 -3.0625,1.3125 -1.4875,0.4375 -3.2375,0.4375 -2.5375,0 -4.6375,-0.9625 -2.0125,-0.9625 -3.5,-2.5375 -1.4875,-1.6625 -2.3625,-3.85 -0.7875,-2.275 -0.7875,-4.8125 z m 5.95,-0.0875 q 0,2.1 1.4,4.025 1.4875,1.925 3.7625,1.925 2.8,0 4.55,-1.575 1.75,-1.6625 3.675,-3.7625 0.6125,-0.6125 0.9625,-1.4 0.4375,-0.875 0.4375,-1.75 0,-0.7 -0.35,-1.225 -0.35,-0.6125 -0.7875,-1.1375 -0.35,-0.525 -0.7,-1.1375 -0.35,-0.6125 -0.35,-1.4 0,-0.175 0,-0.525 0.0875,-0.4375 0.0875,-0.525 0,-0.175 0.35,-1.05 0.35,-0.875 0.35,-1.05 -0.6125,-0.7 -1.05,-1.05 -0.35,-0.35 -0.7875,-0.525 -0.35,-0.2625 -0.6125,-0.175 l -6.3875,2.8 q -1.225,0.525 -2.1,1.6625 -0.7875,1.05 -1.4,2.45 -0.525,1.3125 -0.7875,2.8 -0.2625,1.4 -0.2625,2.625 z" />
      <path
         id="path3519"
         style=""
         d="m 464.97588,290.26415 q 0,-0.525 -0.175,-1.75 -0.0875,-1.1375 -0.2625,-2.5375 -0.0875,-1.3125 -0.175,-2.5375 -0.0875,-1.1375 -0.0875,-1.6625 l 0,-1.05 q 0,-0.35 -0.0875,-1.05 0,-0.7 0.0875,-1.4 0.0875,-0.7 0.2625,-1.225 0.2625,-0.525 0.7875,-0.525 l 2.45,0 q 0.35,0 0.6125,1.8375 0.35,1.925 0.9625,4.375 0.7,2.45 1.75,4.8125 1.1375,2.45 2.975,3.4125 l 2.3625,0 q 3.15,0 6.475,-0.9625 3.325,-0.9625 6.2125,-2.7125 2.975,-1.75 5.25,-4.375 2.275,-2.5375 3.325,-5.6875 0.9625,-3.0625 1.1375,-5.8625 0.2625,-2.7125 0.2625,-5.95 l 0,-4.725 q -0.175,-0.7875 -0.525,-2.7125 -0.35,-1.8375 -0.7875,-4.025 -0.35,-2.1 -0.7,-4.025 -0.35,-1.8375 -0.4375,-2.5375 -0.175,-0.6125 -0.35,-1.4 -0.175,-0.7875 -0.525,-1.4 -0.2625,-0.6125 -0.7875,-1.05 -0.4375,-0.4375 -1.3125,-0.4375 -1.6625,0 -3.15,0.4375 -1.4875,0.35 -3.0625,0.35 -5.5125,0 -8.8375,-3.325 -3.325,-3.4125 -4.55,-8.6625 l 0,-3.5 q 0,-1.8375 0.175,-4.025 0.175,-2.275 0.875,-4.2 0.7,-1.925 2.1,-3.15 1.4,-1.3125 3.9375,-1.3125 2.3625,0 3.4125,1.575 1.1375,1.4875 1.1375,3.7625 0,1.4 -0.875,2.1 -0.7875,0.6125 -1.8375,1.225 -0.9625,0.525 -1.8375,1.3125 -0.7875,0.7 -0.7875,2.275 0,1.575 0.4375,3.325 0.525,1.6625 1.4875,3.15 0.9625,1.4875 2.275,2.45 1.4,0.9625 3.2375,0.9625 1.8375,0 3.0625,-0.6125 1.225,-0.6125 1.925,-1.6625 0.7875,-1.05 1.05,-2.3625 0.35,-1.4 0.35,-2.8875 0,-1.05 0,-2.0125 0,-1.05 -0.0875,-2.0125 0.4375,-1.05 1.05,-1.75 0.7,-0.7875 1.925,-0.7875 1.3125,0 2.1,1.05 0.7875,0.9625 1.1375,2.275 0.4375,1.3125 0.6125,2.7125 0.175,1.3125 0.2625,2.1 0,0.2625 0,0.9625 0.0875,0.6125 0.175,1.3125 0.0875,0.7 0.0875,1.4 0.0875,0.6125 0.0875,0.875 l 3.85,22.4875 0,0.7 q 0,0.6125 0,1.4 0.0875,0.875 0.0875,1.75 l 0,1.4 q 0,3.675 -0.175,6.7375 -0.0875,3.15 -0.9625,6.65 -1.05,4.1125 -3.9375,7.7 -2.8,3.5875 -6.5625,6.3 -3.7625,2.7125 -8.1375,4.2 -4.2875,1.575 -8.3125,1.575 -2.0125,0 -4.025,-0.2625 -2.0125,-0.2625 -3.7625,-1.05 -1.6625,-0.7 -2.8875,-2.1 -1.225,-1.4 -1.75,-3.675 z" />
      <path
         id="path3521"
         style=""
         d="m 507.17139,242.13915 0,-2.1 q 0,-1.6625 0.7,-3.675 0.7,-2.0125 1.925,-3.675 1.225,-1.6625 2.8875,-2.8 1.6625,-1.1375 3.5,-1.1375 2.1,0 3.9375,1.225 1.925,1.1375 2.5375,3.4125 l 0,2.1 q 0,1.8375 -0.7875,3.85 -0.7875,1.925 -2.1,3.5875 -1.3125,1.575 -3.15,2.7125 -1.75,1.05 -3.675,1.05 -2.1,0 -3.5875,-1.3125 -1.4,-1.4 -2.1875,-3.2375 z m 3.85,-26.6875 0,-4.025 q 0,-1.4875 -0.0875,-3.2375 0,-1.75 0.4375,-3.2375 0.2625,-0.9625 0.9625,-3.325 0.7875,-2.3625 1.6625,-4.9875 0.875,-2.625 1.575,-4.9 0.7875,-2.3625 1.05,-3.325 0.7875,-2.3625 2.0125,-4.9875 1.225,-2.625 2.975,-4.8125 1.75,-2.1875 4.025,-3.5875 2.275,-1.4 5.1625,-1.4 1.575,0 2.625,0.875 1.1375,0.875 1.8375,2.1875 0.7,1.3125 1.05,2.8875 0.35,1.4875 0.35,2.8 l 0,1.1375 -1.75,12.6 q 0,0.35 -0.4375,1.575 -0.4375,1.1375 -0.6125,1.575 -0.2625,0.6125 -0.7875,1.8375 -0.525,1.1375 -1.1375,2.45 -0.525,1.225 -1.05,2.275 -0.4375,0.9625 -0.525,1.225 -0.2625,0.525 -1.05,1.75 -0.7,1.1375 -1.575,2.5375 -0.7875,1.3125 -1.575,2.5375 -0.7,1.1375 -1.05,1.575 -1.75,1.8375 -3.9375,3.7625 -2.1,1.8375 -4.9,1.8375 -2.3625,0 -3.5875,-1.75 -1.225,-1.8375 -1.6625,-3.85 z" />
    </g>
  </g>
</svg>
